<?xml version="1.0" encoding="UTF-8"?>
<svg version="1.1" xmlns="http://www.w3.org/2000/svg" width="548" height="455">
<path d="M0 0 C2.01829083 -0.00299623 4.03658109 -0.00639982 6.05487061 -0.01017761 C11.51159986 -0.01897382 16.96831341 -0.02135385 22.42504907 -0.0219934 C25.84057479 -0.0227063 29.25609658 -0.02484514 32.67162132 -0.02749062 C44.60513943 -0.036729 56.5386464 -0.04082732 68.47216797 -0.04003906 C79.56761049 -0.03943843 90.66300437 -0.04999135 101.75843459 -0.06578273 C111.30954157 -0.07888817 120.8606327 -0.08422171 130.41174859 -0.08358365 C136.10514203 -0.08332958 141.79849218 -0.08613044 147.4918766 -0.0967617 C152.84929691 -0.10649358 158.20663299 -0.10648718 163.5640564 -0.09924507 C165.52066866 -0.09820559 167.4772863 -0.10052392 169.43388939 -0.10660553 C197.28444871 -0.187508 222.7636929 5.56069421 244.97143555 23.14526367 C245.96143555 23.80526367 246.95143555 24.46526367 247.97143555 25.14526367 C247.97143555 25.80526367 247.97143555 26.46526367 247.97143555 27.14526367 C248.5540918 27.40307617 249.13674805 27.66088867 249.73706055 27.92651367 C252.15172585 29.24360384 253.78883732 30.69614751 255.72143555 32.64526367 C256.3350293 33.25370117 256.94862305 33.86213867 257.58081055 34.48901367 C258.97143555 36.14526367 258.97143555 36.14526367 258.97143555 38.14526367 C259.96143555 38.47526367 260.95143555 38.80526367 261.97143555 39.14526367 C263.67284499 41.34341329 265.21076697 43.50881263 266.72143555 45.83276367 C267.16245605 46.5054126 267.60347656 47.17806152 268.05786133 47.87109375 C280.71013358 67.52557774 285.97143555 86.80815756 285.97143555 110.14526367 C269.14143555 110.14526367 252.31143555 110.14526367 234.97143555 110.14526367 C233.70220612 107.60680483 233.82671862 105.67164655 233.72143555 102.83276367 C232.70592575 89.78736865 226.47752482 77.09217122 216.97143555 68.14526367 C216.97143555 67.48526367 216.97143555 66.82526367 216.97143555 66.14526367 C216.13612305 65.75467773 216.13612305 65.75467773 215.28393555 65.35620117 C212.70050564 64.00339159 210.3809712 62.41247696 207.97143555 60.77026367 C197.57502915 54.09877294 186.81700819 51.99074462 174.58639526 52.00482178 C173.76879262 52.00185066 172.95118998 51.99887953 172.1088115 51.99581838 C169.38315872 51.98718239 166.65755012 51.98562746 163.93188477 51.98413086 C161.97167366 51.97949904 160.01146345 51.97447389 158.05125427 51.96908569 C152.7348501 51.95599403 147.41845853 51.94952296 142.10204077 51.94507504 C138.77632956 51.94213885 135.45062175 51.938033 132.12491226 51.93357086 C121.70728474 51.91990394 111.28966505 51.91023356 100.87202919 51.90636897 C88.86931219 51.90189121 76.86670924 51.88435297 64.8640269 51.85536838 C55.57118813 51.83371099 46.27838135 51.82366251 36.98551762 51.82232785 C31.44241706 51.82128266 25.89942381 51.81543587 20.35634995 51.79750824 C15.13766719 51.7809575 9.91917163 51.77890591 4.70047188 51.78764725 C2.79342838 51.7884139 0.88637453 51.78412435 -1.02064323 51.774189 C-18.97531092 51.68619133 -35.06260608 53.64940618 -49.02856445 66.14526367 C-49.68856445 66.14526367 -50.34856445 66.14526367 -51.02856445 66.14526367 C-51.29024414 66.72018555 -51.55192383 67.29510742 -51.8215332 67.88745117 C-53.10662193 70.2912741 -54.59907864 72.17679069 -56.34106445 74.27026367 C-65.86498479 86.44741753 -69.37231417 100.76679464 -68.02856445 116.14526367 C-66.59075431 126.20993467 -63.27755275 135.87379155 -56.8371582 143.86401367 C-55.02856445 146.14526367 -55.02856445 146.14526367 -55.02856445 148.14526367 C-54.36856445 148.14526367 -53.70856445 148.14526367 -53.02856445 148.14526367 C-52.45879883 148.88518555 -51.8890332 149.62510742 -51.30200195 150.38745117 C-48.70595203 153.53661138 -46.15338189 155.18995261 -42.65356445 157.27026367 C-41.55270508 157.9328418 -40.4518457 158.59541992 -39.31762695 159.27807617 C-30.10600614 164.50747611 -22.00574662 166.39577109 -11.48095703 166.76855469 C-10.02471405 166.82527139 -10.02471405 166.82527139 -8.53905201 166.88313389 C6.48816502 167.38513917 21.53299088 167.23846948 36.5661869 167.1898632 C42.31081698 167.17130443 48.05544135 167.16190553 53.8000946 167.15394592 C70.11447831 167.12998063 86.42882353 167.09362191 102.74316406 167.04931641 C111.79775197 167.02480654 120.85232588 167.00742842 129.90694207 166.99775702 C135.62081453 166.99121561 141.33456956 166.97566683 147.04840147 166.95343959 C150.58297697 166.94175025 154.1175236 166.93834482 157.65211678 166.93734169 C159.29450048 166.93518697 160.93688369 166.92957067 162.57924271 166.92031097 C164.81292497 166.90819818 167.04627868 166.90826397 169.27998352 166.91148376 C170.53140294 166.90834136 171.78282236 166.90519896 173.07216358 166.90196133 C175.97143555 167.14526367 175.97143555 167.14526367 177.97143555 169.14526367 C178.21867371 171.23927307 178.21867371 171.23927307 178.21435547 173.85449219 C178.2174321 174.83213028 178.22050873 175.80976837 178.22367859 176.81703186 C178.21290031 178.4045652 178.21290031 178.4045652 178.2019043 180.02416992 C178.20144608 181.10657455 178.20098785 182.18897919 178.20051575 183.30418396 C178.19749113 185.59489029 178.18959864 187.88559451 178.17724609 190.17626953 C178.15899339 193.6966067 178.15673633 197.21668101 178.15698242 200.73706055 C178.1520673 202.95776596 178.146239 205.17846958 178.1394043 207.39916992 C178.13829147 208.45954971 178.13717865 209.5199295 178.1360321 210.61244202 C178.12965225 211.58692795 178.1232724 212.56141388 178.11669922 213.56542969 C178.11288742 214.4276564 178.10907562 215.28988312 178.10514832 216.17823792 C177.97143555 218.14526367 177.97143555 218.14526367 176.97143555 219.14526367 C174.53286495 219.24739757 172.12246619 219.28413771 169.6832428 219.27897644 C168.9110465 219.281242 168.13885021 219.28350755 167.34325403 219.28584176 C164.73500605 219.29221175 162.12680963 219.29135044 159.51855469 219.29052734 C157.65601026 219.29351736 155.79346645 219.29691952 153.93092346 219.30070496 C148.85142038 219.30957478 143.77193413 219.31188458 138.69242406 219.31252074 C135.51444972 219.31323067 132.33647967 219.3153641 129.15850639 219.31801796 C118.05684004 219.32728793 106.95518572 219.33135162 95.85351562 219.33056641 C85.53429852 219.32996824 75.21513414 219.34046431 64.89593035 219.35631007 C56.02351292 219.36944433 47.15111257 219.3747477 38.27868551 219.374111 C32.98631438 219.37385732 27.69398988 219.37663467 22.40162849 219.38728905 C17.40710928 219.3970669 12.41268022 219.39698378 7.41815758 219.38977242 C5.59868867 219.38873782 3.77921388 219.39102131 1.95975494 219.39713287 C-12.88396108 219.44370239 -28.47442779 219.40541549 -42.65356445 214.52026367 C-43.43368896 214.26083984 -44.21381348 214.00141602 -45.01757812 213.73413086 C-61.07018634 208.1882993 -75.36679727 199.45720282 -88.02856445 188.14526367 C-88.02856445 187.48526367 -88.02856445 186.82526367 -88.02856445 186.14526367 C-89.01856445 185.81526367 -90.00856445 185.48526367 -91.02856445 185.14526367 C-113.18120967 161.29707489 -121.00684209 132.70426958 -120.13793945 100.78295898 C-119.57357924 87.17280779 -115.95644278 74.37779225 -110.02856445 62.14526367 C-109.59543945 61.19651367 -109.16231445 60.24776367 -108.71606445 59.27026367 C-97.84931635 39.14665607 -82.55556305 22.44987178 -62.02856445 12.14526367 C-61.05274414 11.63995117 -60.07692383 11.13463867 -59.0715332 10.61401367 C-52.83992695 7.54132229 -46.57040914 5.23010541 -39.90356445 3.33276367 C-39.1880542 3.12578857 -38.47254395 2.91881348 -37.73535156 2.70556641 C-25.44039298 -0.60702879 -12.62319216 -0.00375027 0 0 Z " fill="#FCFBFB" transform="translate(187.028564453125,87.854736328125)"/>
<path d="M0 0 C2.98095681 1.13948236 4.59499885 2.87628355 6.84712601 5.13611507 C7.77936996 6.06423504 8.71161392 6.992355 9.6721077 7.94859982 C10.69820221 8.98531192 11.72415257 10.02216672 12.7499733 11.05914974 C13.83538844 12.14541112 14.92146464 13.23101229 16.00815201 14.31600094 C18.9591273 17.26611418 21.90074825 20.22539942 24.84081149 23.18638229 C27.92007675 26.28440211 31.00784012 29.37392799 34.09471512 32.46436214 C39.9453717 38.32435137 45.78834142 44.19194367 51.62859923 50.06229472 C58.25687136 56.72398936 64.89356127 63.37726996 71.53102386 70.02980566 C82.88190323 81.40675274 94.22648504 92.78994752 105.56389236 104.18031979 C106.28440178 104.90415737 106.28440178 104.90415737 107.01946694 105.64261794 C108.29576796 106.92486002 109.57197326 108.20719737 110.84817028 109.48954296 C112.51805512 111.1654141 114.19317505 112.83607547 115.87175465 114.50323772 C121.18576431 119.85920249 121.18576431 119.85920249 121.18576431 123.83551693 C112.71942143 124.12926762 104.25316719 124.38383821 95.78426743 124.58935356 C91.85114766 124.6860108 87.91933766 124.79580063 83.98752213 124.93634701 C80.18831524 125.07165756 76.38963466 125.17149787 72.58879471 125.24747562 C71.14367957 125.28246426 69.69880746 125.3299254 68.25453568 125.3904314 C66.21980653 125.47347678 64.18869953 125.51083041 62.15256119 125.53839779 C60.42048416 125.58836155 60.42048416 125.58836155 58.65341568 125.63933468 C53.54988344 124.45631212 50.8368562 121.46010625 47.18576431 117.83551693 C46.51797644 117.19480535 45.85018856 116.55409376 45.16216469 115.89396667 C43.00003902 113.80731968 40.86519089 111.69554086 38.7343483 109.57697201 C37.53049736 108.38538731 37.53049736 108.38538731 36.3023262 107.16973019 C33.67583409 104.56784258 31.05331371 101.96200962 28.43185806 99.35504818 C27.53327639 98.46179018 26.63469471 97.56853218 25.70888329 96.64820576 C21.93811144 92.89858943 18.16835319 89.1479686 14.40248394 85.3934288 C9.02154787 80.02879831 3.63223012 74.67290682 -1.76882035 69.32852536 C-6.03713031 65.10347939 -10.29175982 60.86491695 -14.54169655 56.62138081 C-16.34967147 54.8201428 -18.16191734 53.02318147 -19.97842216 51.230546 C-22.5065225 48.73382349 -25.01864845 46.22205002 -27.52737045 43.70587826 C-28.28515793 42.96449612 -29.0429454 42.22311398 -29.82369614 41.45926571 C-30.50072083 40.77392254 -31.17774551 40.08857937 -31.8752861 39.38246822 C-32.47051354 38.79055093 -33.06574099 38.19863363 -33.67900562 37.58877945 C-34.81423569 35.83551693 -34.81423569 35.83551693 -34.5796814 33.72024441 C-33.66039351 31.45671725 -32.54053557 30.16793147 -30.82668686 28.42804623 C-30.19900909 27.7844566 -29.57133133 27.14086697 -28.92463303 26.47777462 C-28.24238159 25.79532177 -27.56013016 25.11286892 -26.85720444 24.40973568 C-26.15783264 23.70275036 -25.45846085 22.99576504 -24.73789597 22.26735592 C-23.25802961 20.7766898 -21.77417183 19.28997714 -20.2866478 17.80695248 C-18.00678907 15.52806815 -15.7490895 13.22869531 -13.49197006 10.9273138 C-12.0525171 9.4826557 -10.61180368 8.0392522 -9.16970444 6.59723568 C-8.4935257 5.90466167 -7.81734695 5.21208767 -7.12067795 4.49852657 C-6.4835437 3.87069775 -5.84640945 3.24286892 -5.18996811 2.59601498 C-4.6333902 2.03738262 -4.07681229 1.47875027 -3.50336838 0.90318966 C-1.81423569 -0.16448307 -1.81423569 -0.16448307 0 0 Z " fill="#F8F7F7" transform="translate(376.81423568725586,182.16448307037354)"/>
<path d="M0 0 C7.03341045 4.71558201 11.966389 11.0610194 14.45703125 19.1796875 C16.28603823 28.67999714 16.25668272 38.63548122 11 47 C10.42765625 47.92619141 10.42765625 47.92619141 9.84375 48.87109375 C8.936297 50.274405 7.97462795 51.64248249 7 53 C7.93972656 53.05607422 7.93972656 53.05607422 8.8984375 53.11328125 C9.71570313 53.17902344 10.53296875 53.24476563 11.375 53.3125 C12.59316406 53.39951172 12.59316406 53.39951172 13.8359375 53.48828125 C16 54 16 54 18 57 C17.48275862 60.51724138 17.48275862 60.51724138 16 62 C7.87089738 63.23494928 -0.42226031 63.21338063 -8.625 63.25 C-10.36910156 63.2809375 -10.36910156 63.2809375 -12.1484375 63.3125 C-21.64362346 63.35546464 -29.45312635 61.998797 -37 56 C-37 55.34 -37 54.68 -37 54 C-37.99 53.67 -38.98 53.34 -40 53 C-41.5703125 50.3828125 -41.5703125 50.3828125 -43.125 47.125 C-43.64320313 46.05507813 -44.16140625 44.98515625 -44.6953125 43.8828125 C-48.45715208 35.57072386 -48.29314047 24.73723141 -45.5 16.0625 C-42.36283737 8.66058248 -37.08972439 2.77321221 -30 -1 C-19.25806208 -5.25822335 -10.48948267 -4.80767956 0 0 Z M-33.51953125 13.76953125 C-38.17463489 20.7828932 -37.66200093 28.91353299 -37 37 C-35.6187547 43.32726139 -33.06494147 47.97941472 -27.83984375 51.87890625 C-22.33813913 55.23132499 -16.95595337 55.40087499 -10.71875 54.6640625 C-5.50486162 53.39055528 -1.82573488 50.46261914 1.34375 46.1875 C6.02027406 38.43783155 6.3677867 28.41890451 4.50390625 19.671875 C2.13013222 13.71732321 -2.25450742 8.79908613 -8 6 C-18.42548239 2.90696269 -26.45989739 5.6759922 -33.51953125 13.76953125 Z " fill="#DDD9D8" transform="translate(225,343)"/>
<path d="M0 0 C0.71808838 0.00008057 1.43617676 0.00016113 2.17602539 0.00024414 C4.34672098 -0.0019268 6.51689549 -0.02003295 8.6875 -0.0390625 C10.07617014 -0.04199956 11.46484269 -0.04398226 12.85351562 -0.04492188 C14.74493286 -0.05108521 14.74493286 -0.05108521 16.67456055 -0.05737305 C23.83795736 0.43825172 28.35113344 3.09601927 33.18554688 8.18554688 C36.02419547 12.62864903 35.71860004 18.07643735 35.18554688 23.18554688 C33.19416702 28.56227248 30.4081835 31.80962896 25.56054688 34.81054688 C21.19452031 36.58929844 16.82091815 37.40687779 12.18554688 38.18554688 C12.51554687 39.17554688 12.84554688 40.16554688 13.18554688 41.18554688 C13.73082031 41.45367187 14.27609375 41.72179687 14.83789062 41.99804688 C18.35369357 43.77642307 20.9129035 46.48115814 23.74804688 49.18554688 C24.89340569 50.27075836 26.04048119 51.35416153 27.18945312 52.43554688 C27.6929126 52.91507812 28.19637207 53.39460938 28.71508789 53.88867188 C30.36434013 55.40176869 30.36434013 55.40176869 33.18554688 57.18554688 C33.18554688 57.84554687 33.18554688 58.50554687 33.18554688 59.18554688 C34.50554687 59.84554687 35.82554687 60.50554687 37.18554688 61.18554688 C37.18554688 62.17554688 37.18554688 63.16554688 37.18554688 64.18554688 C32.14187323 64.87593566 27.91801643 65.18561006 23.40429688 62.58007812 C19.03993246 59.07675549 15.08764467 55.19310677 11.18554688 51.18554688 C9.32065769 49.60786636 7.4409247 48.05289911 5.54101562 46.51757812 C5.09371094 46.07800781 4.64640625 45.6384375 4.18554688 45.18554688 C4.18554688 44.52554688 4.18554688 43.86554688 4.18554688 43.18554688 C3.54617188 42.87617188 2.90679687 42.56679688 2.24804688 42.24804688 C0.18554688 41.18554688 0.18554688 41.18554688 -0.81445312 40.18554688 C-0.83950928 40.87704834 -0.86456543 41.5685498 -0.89038086 42.28100586 C-1.00597474 45.39522554 -1.12886554 48.50911477 -1.25195312 51.62304688 C-1.29126953 52.71166016 -1.33058594 53.80027344 -1.37109375 54.921875 C-1.41298828 55.95634766 -1.45488281 56.99082031 -1.49804688 58.05664062 C-1.55303345 59.49414673 -1.55303345 59.49414673 -1.60913086 60.96069336 C-1.81445312 63.18554688 -1.81445312 63.18554688 -2.81445312 64.18554688 C-5.48504164 64.32669849 -8.1387755 64.22801795 -10.81445312 64.18554688 C-12.16283696 61.48877921 -11.9416156 59.39406908 -11.94384766 56.37475586 C-11.94699982 55.15686874 -11.95015198 53.93898163 -11.95339966 52.68418884 C-11.95161002 51.35000574 -11.9495591 50.01582296 -11.94726562 48.68164062 C-11.94793894 47.31925947 -11.94890919 45.95687843 -11.95016479 44.59449768 C-11.95163999 41.73884945 -11.9494926 38.88323249 -11.94482422 36.02758789 C-11.93912162 32.35979702 -11.9424104 28.69207924 -11.94839668 25.02429104 C-11.9520025 22.21140487 -11.95086371 19.39853617 -11.94826889 16.58564949 C-11.94759996 15.23279881 -11.94842687 13.87994656 -11.95074844 12.5270977 C-11.95327585 10.64037988 -11.94874356 8.75365652 -11.94384766 6.86694336 C-11.94305206 5.79153793 -11.94225647 4.71613251 -11.94143677 3.60813904 C-11.6391354 -2.15916219 -4.49146715 0.01595704 0 0 Z M-1.81445312 8.18554688 C-1.81445312 14.78554688 -1.81445312 21.38554687 -1.81445312 28.18554688 C1.58223523 28.29366428 4.97547127 28.37291875 8.37304688 28.43554688 C9.33275391 28.4690625 10.29246094 28.50257813 11.28125 28.53710938 C17.04066104 28.63131049 17.04066104 28.63131049 22.23632812 26.35742188 C24.60425585 23.71900942 26.07136754 21.9195569 26.62304688 18.37304688 C26.01289937 13.92768651 24.30052803 12.37469425 21.18554688 9.18554688 C18.73279547 7.95917117 17.13496877 8.07139373 14.39648438 8.08789062 C12.98496094 8.09272461 12.98496094 8.09272461 11.54492188 8.09765625 C10.56007813 8.10603516 9.57523437 8.11441406 8.56054688 8.12304688 C7.07167969 8.12981445 7.07167969 8.12981445 5.55273438 8.13671875 C3.09697965 8.14852526 0.64125581 8.16646105 -1.81445312 8.18554688 Z " fill="#DCD8D7" transform="translate(322.814453125,340.814453125)"/>
<path d="M0 0 C3.78275115 3.29138347 6.70968228 7.09679266 8 12 C8.125 14.8125 8.125 14.8125 8 17 C1.87234043 18.53191489 1.87234043 18.53191489 -1 17 C-2.625 13.625 -2.625 13.625 -4 10 C-5.72226496 6.75150023 -5.72226496 6.75150023 -9 6 C-13.90373192 5.60527235 -18.4657624 5.44767446 -23.125 7.125 C-25.68301127 9.68301127 -25.92695236 11.42066548 -26 15 C-25.19428374 17.82000692 -24.34983609 18.75703983 -21.94140625 20.4296875 C-17.59471083 22.75023406 -13.00283472 24.14678892 -8.32617188 25.66210938 C-1.24801364 28.04666224 4.26839461 31.04100975 8.08203125 37.65625 C10.05415884 42.69146938 9.94633558 47.98285951 8.3359375 53.1171875 C5.94648792 57.95842013 2.69813587 59.81872263 -2 62 C-9.4744452 64.39054751 -18.74553556 63.90796205 -26.00390625 61.03125 C-32.34329091 57.75610802 -35.64463454 53.63934804 -38.46875 47.1484375 C-39.07642642 44.69092256 -38.86451776 43.35684008 -38 41 C-37 40 -37 40 -34.125 39.625 C-33.09375 39.74875 -32.0625 39.8725 -31 40 C-29.3125 42.1875 -29.3125 42.1875 -28 45 C-26.03986871 48.57937019 -24.56500915 50.94794595 -21 53 C-18.22977359 53.3462783 -15.76504035 53.51001826 -13 53.5 C-12.2884375 53.52835937 -11.576875 53.55671875 -10.84375 53.5859375 C-7.05021549 53.60009248 -5.34801361 53.32056775 -2.5234375 50.71875 C-0.62732607 47.33492037 -0.30415329 45.66030387 -1.02734375 41.91796875 C-4.01898619 36.01878626 -13.50450406 34.44811894 -19.25 32.4375 C-20.38953125 32.06496094 -21.5290625 31.69242187 -22.703125 31.30859375 C-28.74564062 28.91020189 -33.18525719 25.95426363 -36 20 C-36.76497097 14.83254303 -36.80321342 9.8144092 -34.4375 5.0625 C-25.8904551 -5.67609488 -11.36106279 -6.59674613 0 0 Z " fill="#E5E1E0" transform="translate(426,343)"/>
<path d="M0 0 C3.48105138 2.888532 6.1293174 5.86480688 8 10 C8.1875 13.8125 8.1875 13.8125 8 17 C4.84354695 17.9920281 3.41167349 18.17232844 0.3125 16.875 C-2.34774826 14.71804195 -2.8866562 13.18098228 -4 10 C-6.00415838 7.56015502 -6.91371864 7.02876045 -10 6 C-14.58890142 5.59555445 -18.71209799 5.52689314 -23.0625 7.125 C-25.69342077 9.67105236 -25.92612155 11.37995604 -26 15 C-25.18203263 17.8628858 -24.32630322 18.77547944 -21.87109375 20.46484375 C-18.55406013 22.23844132 -15.2848163 23.28000484 -11.6875 24.375 C-3.61297981 26.95257879 3.19485301 29.69617657 8 37 C9.94207252 42.82621755 9.89139928 48.84394859 7.25 54.4375 C4.8200319 58.64549355 2.57707161 60.36246041 -1.9375 62.1875 C-10.47765498 64.35467911 -20.06210961 63.91118508 -28 60 C-31.0625 57.9375 -31.0625 57.9375 -33 56 C-33 55.34 -33 54.68 -33 54 C-33.66 54 -34.32 54 -35 54 C-35.67305018 52.39850114 -36.33822227 50.79368971 -37 49.1875 C-37.37125 48.29417969 -37.7425 47.40085937 -38.125 46.48046875 C-39 44 -39 44 -39 41 C-32.375 39.75 -32.375 39.75 -29 42 C-28.566875 43.11375 -28.13375 44.2275 -27.6875 45.375 C-25.6707899 49.70719206 -24.177328 50.77112476 -20 53 C-16.22184005 53.59108841 -16.22184005 53.59108841 -12.3125 53.4375 C-11.00925781 53.43621094 -9.70601562 53.43492187 -8.36328125 53.43359375 C-5.06465348 53.28602741 -5.06465348 53.28602741 -3.10546875 51.59765625 C-0.82631872 48.30376098 -0.60030929 45.99690713 -1 42 C-4.4191661 37.14887545 -10.01460992 35.87980803 -15.375 34 C-31.6038686 28.26161552 -31.6038686 28.26161552 -35.3046875 20.984375 C-37.14591876 15.72962513 -36.61122576 10.7501167 -34.4375 5.6875 C-31.53307014 0.52520948 -27.43649017 -0.94065645 -22.125 -3.25 C-14.00526399 -5.19873664 -7.3438621 -3.96131266 0 0 Z " fill="#DBD7D6" transform="translate(163,343)"/>
<path d="M0 0 C1.60562194 3.99941735 3.20923338 7.99963794 4.8125 12 C5.26431641 13.12535156 5.71613281 14.25070312 6.18164062 15.41015625 C8.23608558 20.53877065 10.271942 25.6684761 12.1887207 30.85009766 C13.25534901 33.67667871 14.3693723 36.48357921 15.48046875 39.29296875 C16.14272461 40.9800293 16.14272461 40.9800293 16.81835938 42.70117188 C17.73667605 45.03953887 18.66123569 47.37546308 19.59179688 49.70898438 C20.02943359 50.82982422 20.46707031 51.95066406 20.91796875 53.10546875 C21.31781982 54.11762451 21.7176709 55.12978027 22.12963867 56.17260742 C22.98784049 58.9604995 23.17670003 61.10550098 23 64 C20.36 64 17.72 64 15 64 C14.19770863 62.50565577 13.40878133 61.00413528 12.625 59.5 C12.18414062 58.6646875 11.74328125 57.829375 11.2890625 56.96875 C10 54 10 54 8 46 C-1.24 46 -10.48 46 -20 46 C-20.99 48.97 -21.98 51.94 -23 55 C-25.72093023 62.72093023 -25.72093023 62.72093023 -27 64 C-29.33297433 64.04092937 -31.66705225 64.04241723 -34 64 C-35.44427377 59.39370672 -34.45146428 56.98294763 -32.4375 52.6875 C-31.86784917 51.43506443 -31.30155934 50.18109584 -30.73828125 48.92578125 C-30.44646973 48.27818848 -30.1546582 47.6305957 -29.85400391 46.96337891 C-28.48402078 43.81374932 -27.30437405 40.59983826 -26.125 37.375 C-23.4818909 30.19665696 -20.66821866 23.09395859 -17.80322266 16.00146484 C-17.48272949 15.20691895 -17.16223633 14.41237305 -16.83203125 13.59375 C-16.36676025 12.44410767 -16.36676025 12.44410767 -15.89208984 11.27124023 C-15.01214185 9.03091287 -14.20574761 6.77259475 -13.40234375 4.50390625 C-12 1 -12 1 -9.75 -0.5625 C-6.32355515 -1.10761623 -3.41018762 -0.54034663 0 0 Z M-7 11 C-11.455 22.88 -11.455 22.88 -16 35 C-14.03464283 37.41122368 -14.03464283 37.41122368 -10.3046875 37.1953125 C-8.82799892 37.182009 -7.35137642 37.15814835 -5.875 37.125 C-4.74384766 37.11146484 -4.74384766 37.11146484 -3.58984375 37.09765625 C-1.72642746 37.0740687 0.13682593 37.03819719 2 37 C3.06350918 33.09627531 2.93735869 30.9062792 1.41796875 27.171875 C1.06283203 26.29015625 0.70769531 25.4084375 0.34179688 24.5 C-0.22958008 23.13875 -0.22958008 23.13875 -0.8125 21.75 C-1.36647461 20.36554688 -1.36647461 20.36554688 -1.93164062 18.953125 C-3.51592834 14.16637851 -3.51592834 14.16637851 -7 11 Z " fill="#E7E4E4" transform="translate(281,341)"/>
<path d="M0 0 C0.02312737 8.06652174 0.04091709 16.13302972 0.05181217 24.19957638 C0.05704014 27.94483037 0.06413622 31.69006176 0.07543945 35.43530273 C0.08627141 39.04681687 0.09227749 42.65830921 0.09487724 46.26983833 C0.09673094 47.65060329 0.10035049 49.031367 0.10573006 50.41212273 C0.11294447 52.33975952 0.11340809 54.26741807 0.11352539 56.19506836 C0.115746 57.29427109 0.11796661 58.39347382 0.12025452 59.52598572 C0 62 0 62 -1 63 C-4.5 63.125 -4.5 63.125 -8 63 C-9 62 -9 62 -9.12025452 59.48802185 C-9.11803391 58.37105423 -9.11581329 57.25408661 -9.11352539 56.10327148 C-9.11344986 54.84203964 -9.11337433 53.5808078 -9.11329651 52.28135681 C-9.1081891 50.89460206 -9.10297309 49.50784771 -9.09765625 48.12109375 C-9.09579201 46.71004791 -9.09436814 45.29900143 -9.09336853 43.88795471 C-9.08954379 40.16759465 -9.0797139 36.4472734 -9.06866455 32.72692871 C-9.05844948 28.93319219 -9.05387071 25.13944942 -9.04882812 21.34570312 C-9.03809158 13.89711769 -9.0210157 6.44856428 -9 -1 C-5.79937313 -2.60031344 -3.27728194 -1.03173691 0 0 Z " fill="#E3DEDD" transform="translate(378,342)"/>
<path d="M0 0 C3.51454203 0.00010438 7.02889423 -0.01389256 10.54339027 -0.03077221 C13.94055161 -0.04446581 17.33767467 -0.04397492 20.73486328 -0.04516602 C22.62188461 -0.05594429 22.62188461 -0.05594429 24.54702759 -0.06694031 C26.27316788 -0.06232536 26.27316788 -0.06232536 28.03417969 -0.05761719 C29.55297226 -0.05975471 29.55297226 -0.05975471 31.10244751 -0.06193542 C33.50830078 0.18530273 33.50830078 0.18530273 35.50830078 2.18530273 C35.75553894 4.27931213 35.75553894 4.27931213 35.7512207 6.89453125 C35.75429733 7.87216934 35.75737396 8.84980743 35.76054382 9.85707092 C35.74976555 11.44460426 35.74976555 11.44460426 35.73876953 13.06420898 C35.73831131 14.14661362 35.73785309 15.22901825 35.73738098 16.34422302 C35.73435637 18.63492935 35.72646387 20.92563358 35.71411133 23.21630859 C35.69585863 26.73664576 35.69360156 30.25672008 35.69384766 33.77709961 C35.68893253 35.99780503 35.68310424 38.21850865 35.67626953 40.43920898 C35.67515671 41.49958878 35.67404388 42.55996857 35.67289734 43.65248108 C35.66651749 44.62696701 35.66013763 45.60145294 35.65356445 46.60546875 C35.64975266 47.46769547 35.64594086 48.32992218 35.64201355 49.21827698 C35.50830078 51.18530273 35.50830078 51.18530273 34.50830078 52.18530273 C32.02938107 52.2830178 29.57835301 52.31526231 27.09898376 52.30555725 C25.92163905 52.30683889 25.92163905 52.30683889 24.72050959 52.30814642 C22.07024219 52.30980361 19.42003703 52.30427597 16.76977539 52.29882812 C14.87802634 52.29854628 12.98627718 52.29870394 11.0945282 52.29927063 C5.94184968 52.29955871 0.78919423 52.29366039 -4.3634789 52.28669667 C-9.74202817 52.28046477 -15.12057792 52.27985947 -20.49913025 52.27867126 C-30.69181746 52.27555746 -40.88449401 52.26734342 -51.07717651 52.25732177 C-62.6779449 52.24616215 -74.27871379 52.24065057 -85.8794862 52.23562634 C-109.7502298 52.22516085 -133.62096391 52.20756046 -157.49169922 52.18530273 C-157.49169922 51.85530273 -157.49169922 51.52530273 -157.49169922 51.18530273 C-62.94669922 50.69030273 -62.94669922 50.69030273 33.50830078 50.18530273 C33.50830078 34.34530273 33.50830078 18.50530273 33.50830078 2.18530273 C3.80830078 2.18530273 -25.89169922 2.18530273 -56.49169922 2.18530273 C-56.49169922 1.85530273 -56.49169922 1.52530273 -56.49169922 1.18530273 C-37.65383239 0.37013136 -18.85298822 -0.00307392 0 0 Z " fill="#8E8482" transform="translate(329.49169921875,254.814697265625)"/>
<path d="M0 0 C26.26842643 -0.07002553 52.53683891 -0.1229565 78.80533981 -0.15543652 C91.00176866 -0.17091719 103.19813958 -0.19202965 115.39453125 -0.22631836 C126.02268424 -0.25618395 136.65079529 -0.27556627 147.27898908 -0.28226548 C152.90854665 -0.28618255 158.53798419 -0.29541315 164.16750336 -0.31719017 C169.4632063 -0.33751043 174.75873946 -0.34384283 180.05447769 -0.33932304 C182.00077613 -0.34015024 183.94708009 -0.34614235 185.89334488 -0.35761642 C188.54586722 -0.37249075 191.19774422 -0.36897219 193.85028076 -0.36076355 C194.62460095 -0.36950207 195.39892114 -0.3782406 196.19670558 -0.38724393 C200.90308196 -0.34773933 202.0279642 0.02097315 206 3 C138.02 2.67 70.04 2.34 0 2 C0 1.34 0 0.68 0 0 Z " fill="#9E9690" transform="translate(169,137)"/>
<path d="M0 0 C20.15818139 -0.08578782 40.31144283 0.1639595 60.46772265 0.40385818 C65.28291899 0.46088011 70.09813309 0.51636222 74.91334534 0.57202148 C83.99324605 0.67720341 93.07313044 0.7837305 102.15300947 0.89076519 C112.50641701 1.01274505 122.85984226 1.13318832 133.21326911 1.25351524 C154.4755327 1.5006578 175.73777108 1.74989135 197 2 C197 16.85 197 31.7 197 47 C196.67 47 196.34 47 196 47 C196 32.48 196 17.96 196 3 C187.46523804 3.00785522 187.46523804 3.00785522 178.75805664 3.01586914 C160.01048753 3.03239964 141.26291815 3.04351987 122.51534367 3.05181217 C111.1427937 3.05697574 99.77025062 3.0640196 88.39770508 3.07543945 C78.48923136 3.08538443 68.58076263 3.09185298 58.67228407 3.09408849 C53.42237095 3.09539592 48.17247211 3.09848376 42.92256355 3.10573006 C37.98723004 3.11248734 33.05191675 3.11461756 28.11657906 3.11310768 C26.2996459 3.11338414 24.4827121 3.11539099 22.66578293 3.11920547 C20.19631711 3.12413818 17.72692894 3.12299987 15.25746155 3.12025452 C14.16458339 3.12462378 14.16458339 3.12462378 13.04962689 3.12908131 C8.11412121 3.11412121 8.11412121 3.11412121 7 2 C4.67182036 1.63239269 2.3381615 1.29758419 0 1 C0 0.67 0 0.34 0 0 Z " fill="#FAF7F5" transform="translate(166,255)"/>
<path d="M0 0 C1.546875 0.185625 1.546875 0.185625 3.125 0.375 C4.8125 2.5625 4.8125 2.5625 6.125 5.375 C8.29187483 9.41326672 10.22647737 11.89690895 14.125 14.375 C17.22540794 14.9885019 20.28325808 15.07023021 23.4375 15.125 C24.27345703 15.15464844 25.10941406 15.18429687 25.97070312 15.21484375 C28.02162485 15.28516107 30.07331562 15.33238973 32.125 15.375 C31.61896008 17.54374252 31.12516187 19.37467627 30.125 21.375 C27.27057247 21.42937005 24.41719924 21.46884974 21.5625 21.5 C20.76263672 21.51675781 19.96277344 21.53351563 19.13867188 21.55078125 C12.1596442 21.6077529 5.89388487 20.88600892 0.484375 16 C-2.10684048 12.90245505 -3.86287968 9.27689835 -4.875 5.375 C-4.28226535 1.51200521 -4.00713824 0.52267021 0 0 Z " fill="#E0DCDB" transform="translate(391.875,382.625)"/>
<path d="M0 0 C0.66 0.33 1.32 0.66 2 1 C1.0409375 2.1446875 1.0409375 2.1446875 0.0625 3.3125 C-2.14232781 5.88246713 -2.14232781 5.88246713 -3 9 C-0.36 9 2.28 9 5 9 C5 8.34 5 7.68 5 7 C8.63 7 12.26 7 16 7 C16.495 9.475 16.495 9.475 17 12 C16 13 16 13 12.03100586 13.11352539 C10.25894393 13.1133662 8.4868774 13.10766785 6.71484375 13.09765625 C5.78402481 13.0962413 4.85320587 13.09482635 3.8941803 13.09336853 C0.90858809 13.08775172 -2.07693029 13.0751964 -5.0625 13.0625 C-7.08137913 13.05748716 -9.10025943 13.05292388 -11.11914062 13.04882812 C-16.07945572 13.03777683 -21.03971532 13.02050095 -26 13 C-26 12.34 -26 11.68 -26 11 C-27.65 11 -29.3 11 -31 11 C-31.33 9.02 -31.66 7.04 -32 5 C-28.75651029 4.01712433 -27.15296707 3.95105054 -23.875 5 C-17.38463779 7.06447251 -10.40412625 5.96585385 -4.375 3 C-1.25956778 1.34217886 -1.25956778 1.34217886 0 0 Z " fill="#F0EEED" transform="translate(226,391)"/>
<path d="M0 0 C4.13907504 8.27815007 3 15.43874838 3 25 C-13.83 25 -30.66 25 -48 25 C-49.29491334 22.41017332 -49.25822833 20.26529841 -49.4375 17.375 C-49.81268785 12.35232394 -50.60618838 7.83188027 -52 3 C-51.01 3 -50.02 3 -49 3 C-48.49219106 5.20655075 -47.99408635 7.41533605 -47.5 9.625 C-47.08234375 11.46964844 -47.08234375 11.46964844 -46.65625 13.3515625 C-46 17 -46 17 -46 23 C-30.16 23 -14.32 23 2 23 C2 20.69 2 18.38 2 16 C1.34 16 0.68 16 0 16 C0 10.72 0 5.44 0 0 Z " fill="#E1D7D6" transform="translate(470,173)"/>
<path d="M0 0 C21.17501269 -0.10622176 42.34566066 0.19793619 63.51849365 0.46356201 C68.43354045 0.52491659 73.34860698 0.58464735 78.26367188 0.64453125 C87.84246744 0.76146792 97.42124046 0.8801505 107 1 C107 1.33 107 1.66 107 2 C80.95913604 2.60982591 54.92378031 3.10305158 28.875 3.125 C27.82159424 3.12749756 26.76818848 3.12999512 25.68286133 3.13256836 C22.72343516 3.13837525 19.76411438 3.1370255 16.8046875 3.1328125 C15.9217099 3.13479645 15.0387323 3.1367804 14.1289978 3.13882446 C8.11537733 3.11537733 8.11537733 3.11537733 7 2 C4.67182036 1.63239269 2.3381615 1.29758419 0 1 C0 0.67 0 0.34 0 0 Z " fill="#DED3CF" transform="translate(166,255)"/>
<path d="M0 0 C1.98 0.66 3.96 1.32 6 2 C6 2.66 6 3.32 6 4 C6.66 4 7.32 4 8 4 C8 3.34 8 2.68 8 2 C8.66 2.33 9.32 2.66 10 3 C10 4.32 10 5.64 10 7 C11.65 7 13.3 7 15 7 C15 7.66 15 8.32 15 9 C28.53 9 42.06 9 56 9 C56 9.33 56 9.66 56 10 C47.78335547 10.89515002 39.63762469 11.21311328 31.375 11.25 C30.21226562 11.270625 29.04953125 11.29125 27.8515625 11.3125 C18.35637654 11.35546464 10.54687365 9.998797 3 4 C3 3.34 3 2.68 3 2 C2.01 1.67 1.02 1.34 0 1 C0 0.67 0 0.34 0 0 Z " fill="#A69A9C" transform="translate(185,395)"/>
<path d="M0 0 C0.66 0 1.32 0 2 0 C3.60355101 3.50776784 4.22036864 6.14354879 4 10 C4.99 10 5.98 10 7 10 C8.45184478 14.53701494 9.23509196 18.18061476 9 23 C9.66 23 10.32 23 11 23 C11.66 25.97 12.32 28.94 13 32 C6.4 32 -0.2 32 -7 32 C-7 31.67 -7 31.34 -7 31 C-1.72 30.67 3.56 30.34 9 30 C8.32020672 25.92124031 7.83062183 23.13865115 6.37109375 19.4765625 C6.05849609 18.68378906 5.74589844 17.89101563 5.42382812 17.07421875 C5.09833984 16.26597656 4.77285156 15.45773437 4.4375 14.625 C4.10814453 13.79355469 3.77878906 12.96210938 3.43945312 12.10546875 C2.63155238 10.06815382 1.8182989 8.03315558 1 6 C0.34 6.66 -0.32 7.32 -1 8 C-0.67 5.36 -0.34 2.72 0 0 Z " fill="#B9AFAE" transform="translate(274,347)"/>
<path d="M0 0 C0.33 0 0.66 0 1 0 C1.98248524 4.0527516 2.08159574 7.83861737 2 12 C1.34 12 0.68 12 0 12 C0.14017826 14.97953359 0.28686342 17.95849304 0.4375 20.9375 C0.47681641 21.78763672 0.51613281 22.63777344 0.55664062 23.51367188 C0.59853516 24.32255859 0.64042969 25.13144531 0.68359375 25.96484375 C0.73858032 27.08814087 0.73858032 27.08814087 0.79467773 28.23413086 C0.81771063 30.02461326 0.81771063 30.02461326 2 31 C2.28483152 32.47374217 2.51435865 33.95827882 2.71875 35.4453125 C2.84636719 36.35796875 2.97398438 37.270625 3.10546875 38.2109375 C3.23566406 39.17257813 3.36585937 40.13421875 3.5 41.125 C3.63019531 42.0634375 3.76039062 43.001875 3.89453125 43.96875 C4.14874718 45.8021861 4.40139781 47.63584004 4.65234375 49.46972656 C5.08908108 52.64834008 5.54255949 55.82430726 6 59 C3.34570315 56.34570315 2.84700269 53.46830702 1.9375 49.9375 C1.59589844 48.66777344 1.25429687 47.39804688 0.90234375 46.08984375 C-1.01873639 37.97239624 -1.15790302 29.87051194 -1.125 21.5625 C-1.12886719 20.58990234 -1.13273437 19.61730469 -1.13671875 18.61523438 C-1.12835109 12.35204023 -0.74838627 6.21808406 0 0 Z " fill="#B7ADAD" transform="translate(68,176)"/>
<path d="M0 0 C1.5 1.3125 1.5 1.3125 3 3 C3 3.99 3 4.98 3 6 C-5.55321519 6.20011851 -14.10655754 6.38384744 -22.66055775 6.54658794 C-26.63241174 6.62266943 -30.60398119 6.70441902 -34.57543945 6.79907227 C-38.40722959 6.89018901 -42.23905309 6.96648193 -46.07135582 7.03244972 C-47.53430905 7.06024829 -48.99717037 7.09341192 -50.45987892 7.13199425 C-52.50687931 7.18507719 -54.55337449 7.21917074 -56.60083008 7.2487793 C-57.76665115 7.27320602 -58.93247223 7.29763275 -60.13362122 7.32279968 C-63 7 -63 7 -66 4 C-44.22 4 -22.44 4 0 4 C0 2.68 0 1.36 0 0 Z " fill="#998C8A" transform="translate(495,300)"/>
<path d="M0 0 C0 0.33 0 0.66 0 1 C-2.31 1 -4.62 1 -7 1 C-7 0.34 -7 -0.32 -7 -1 C-9.31 -1 -11.62 -1 -14 -1 C-14 -0.34 -14 0.32 -14 1 C-14.69867188 1.09796875 -15.39734375 1.1959375 -16.1171875 1.296875 C-17.02726562 1.44640625 -17.93734375 1.5959375 -18.875 1.75 C-19.77992188 1.88921875 -20.68484375 2.0284375 -21.6171875 2.171875 C-24.15446689 2.76658622 -24.15446689 2.76658622 -25.1953125 5.015625 C-25.46085937 5.67046875 -25.72640625 6.3253125 -26 7 C-26.99 7.495 -26.99 7.495 -28 8 C-29.18681726 11.56045177 -29.09689832 14.43808337 -29.0625 18.1875 C-29.05347656 19.45980469 -29.04445313 20.73210937 -29.03515625 22.04296875 C-29.02355469 23.01878906 -29.01195312 23.99460937 -29 25 C-31.19442375 23.2537742 -31.93766788 22.35265381 -32.43359375 19.546875 C-32.44256965 13.12013416 -32.05406393 9.09356751 -28 4 C-19.69015635 -2.39837841 -9.657707 -3.96213621 0 0 Z " fill="#958C8A" transform="translate(422,341)"/>
<path d="M0 0 C9.70965651 -0.06949877 19.41925388 -0.12281063 29.12910843 -0.15543652 C33.63775669 -0.17109502 38.14623481 -0.19233662 42.65478516 -0.22631836 C47.0054873 -0.2589053 51.35602576 -0.27685162 55.70684052 -0.28463173 C57.36704841 -0.29017644 59.02724731 -0.3010039 60.68738556 -0.31719017 C63.01216518 -0.33895597 65.33626775 -0.34196734 67.66113281 -0.34057617 C68.3480571 -0.351362 69.03498138 -0.36214783 69.74272156 -0.3732605 C73.78475227 -0.34707396 76.05472775 0.17436158 79 3 C77.33388095 3.042721 75.66617115 3.04063832 74 3 C73.505 2.505 73.505 2.505 73 2 C70.73079775 1.8758378 68.4577355 1.82196252 66.18530273 1.79467773 C65.47314606 1.78477814 64.76098938 1.77487854 64.0272522 1.76467896 C61.66273372 1.73297788 59.29819511 1.70827276 56.93359375 1.68359375 C55.29833948 1.66303164 53.66309062 1.64203537 52.02784729 1.62062073 C47.71571214 1.56532328 43.40352842 1.51594799 39.09130859 1.46777344 C34.69429176 1.41761428 30.2973458 1.36189913 25.90039062 1.30664062 C17.26698693 1.19896527 8.6335241 1.09754129 0 1 C0 0.67 0 0.34 0 0 Z " fill="#E3D9D2" transform="translate(296,137)"/>
<path d="M0 0 C19.96810934 -0.18451025 19.96810934 -0.18451025 29 1 C29 1.66 29 2.32 29 3 C19.76 3 10.52 3 1 3 C0.34 5.31 -0.32 7.62 -1 10 C-1.33 10 -1.66 10 -2 10 C-1.125 2.25 -1.125 2.25 0 0 Z " fill="#B2A7A8" transform="translate(260,384)"/>
<path d="M0 0 C0.66 0.99 1.32 1.98 2 3 C0.88121617 4.17262904 -0.24523051 5.33795138 -1.375 6.5 C-2.00148438 7.1496875 -2.62796875 7.799375 -3.2734375 8.46875 C-5 10 -5 10 -7 10 C-7.268125 10.598125 -7.53625 11.19625 -7.8125 11.8125 C-9.02493496 14.04593283 -9.94652273 15.49938199 -12 17 C-13.32 16.67 -14.64 16.34 -16 16 C-10.72 10.72 -5.44 5.44 0 0 Z " fill="#B9B2B1" transform="translate(369,188)"/>
<path d="M0 0 C0.33 0 0.66 0 1 0 C0.9278125 0.64324219 0.855625 1.28648437 0.78125 1.94921875 C-0.35864614 13.04737422 -0.24383452 23.91654599 1 35 C0.01 34.34 -0.98 33.68 -2 33 C-2.34057617 29.92724609 -2.34057617 29.92724609 -2.29296875 26.0234375 C-2.28872391 25.33819 -2.28447906 24.6529425 -2.28010559 23.94692993 C-2.26329753 21.75588871 -2.22564405 19.56576368 -2.1875 17.375 C-2.17245579 15.89063827 -2.15876693 14.40626215 -2.14648438 12.921875 C-2.1133879 9.28095167 -2.06159207 5.64056522 -2 2 C-1.34 2 -0.68 2 0 2 C0 1.34 0 0.68 0 0 Z " fill="#A69D99" transform="translate(119,180)"/>
<path d="M0 0 C3.97052863 7.94105726 3.10876908 16.28638794 3 25 C-1.29 25 -5.58 25 -10 25 C-10 24.67 -10 24.34 -10 24 C-6.04 24 -2.08 24 2 24 C2 21.36 2 18.72 2 16 C1.34 16 0.68 16 0 16 C0 10.72 0 5.44 0 0 Z " fill="#9D9591" transform="translate(470,173)"/>
<path d="M0 0 C1.98 0 3.96 0 6 0 C5 2 5 2 2.25 3.125 C-5.6201679 5.17384536 -14.39855707 4.82844388 -22 2 C-19.09330538 1.14694832 -16.68951127 0.92710285 -13.671875 1.12109375 C-12.47304688 1.19360352 -12.47304688 1.19360352 -11.25 1.26757812 C-10.425 1.32365234 -9.6 1.37972656 -8.75 1.4375 C-7.90953125 1.48970703 -7.0690625 1.54191406 -6.203125 1.59570312 C-4.1350648 1.72495689 -2.0674778 1.86174274 0 2 C0 1.34 0 0.68 0 0 Z " fill="#A19495" transform="translate(422,402)"/>
<path d="M0 0 C0.99 2.97 1.98 5.94 3 9 C2.34 9 1.68 9 1 9 C-0.485 6.03 -0.485 6.03 -2 3 C-4.64 3 -7.28 3 -10 3 C-10.33 3.66 -10.66 4.32 -11 5 C-11.66 5 -12.32 5 -13 5 C-12.25 2.5625 -12.25 2.5625 -11 0 C-7.49884809 -1.8154121 -3.74049749 -0.6473938 0 0 Z " fill="#B0A6A3" transform="translate(281,341)"/>
<path d="M0 0 C0.33 0.99 0.66 1.98 1 3 C-0.24839573 4.41808059 -1.49879221 5.83439995 -2.75 7.25 C-3.44609375 8.03890625 -4.1421875 8.8278125 -4.859375 9.640625 C-6.85266232 11.83760591 -8.81204009 13.99590227 -11 16 C-11.66 16 -12.32 16 -13 16 C-11.59368017 12.88103324 -9.90245104 10.54597146 -7.625 8 C-7.00753906 7.3090625 -6.39007813 6.618125 -5.75390625 5.90625 C-3.889351 3.87974006 -1.9867193 1.90725053 0 0 Z " fill="#BCB3B2" transform="translate(102,116)"/>
<path d="M0 0 C2.92914566 4.39371849 3.21084238 8.77256299 3 14 C1.9821541 16.78593502 0.77493804 18.57962994 -1 21 C-2.29491351 18.41017299 -1.70537755 17.78462772 -1 15 C-0.77711499 12.41343327 -0.58685615 9.84047222 -0.4375 7.25 C-0.39431641 6.55261719 -0.35113281 5.85523438 -0.30664062 5.13671875 C-0.20110404 3.42468078 -0.1001009 1.71236439 0 0 Z " fill="#A49D9C" transform="translate(230,365)"/>
<path d="M0 0 C0.92069386 3.48815722 1.36297417 6.37025829 1 10 C-0.9375 13.1875 -0.9375 13.1875 -3 16 C-3.33 16.99 -3.66 17.98 -4 19 C-4.66 19 -5.32 19 -6 19 C-5.39124245 14.39583374 -4.15277044 10.43516676 -2.4375 6.125 C-1.75494141 4.39636719 -1.75494141 4.39636719 -1.05859375 2.6328125 C-0.70925781 1.76398438 -0.35992187 0.89515625 0 0 Z " fill="#AAA1A0" transform="translate(256,375)"/>
<path d="M0 0 C3.80037511 5.70056267 4.28098528 10.73962627 4.125 17.375 C4.11597656 18.11105469 4.10695312 18.84710938 4.09765625 19.60546875 C4.07430144 21.4037888 4.03843836 23.20193911 4 25 C3.67 25 3.34 25 3 25 C2.49420286 21.95919579 1.99519241 18.91753354 1.5 15.875 C1.35691406 15.0190625 1.21382812 14.163125 1.06640625 13.28125 C0.34304266 8.80328495 -0.17918816 4.55436565 0 0 Z " fill="#ACA4A1" transform="translate(236,356)"/>
<path d="M0 0 C0.33 0 0.66 0 1 0 C1.98248524 4.0527516 2.08159574 7.83861737 2 12 C1.34 12 0.68 12 0 12 C0 18.93 0 25.86 0 33 C-0.33 33 -0.66 33 -1 33 C-1.02946035 29.37501758 -1.04695131 25.75006668 -1.0625 22.125 C-1.07087891 21.11179688 -1.07925781 20.09859375 -1.08789062 19.0546875 C-1.10845895 12.63736985 -0.78323679 6.37009043 0 0 Z " fill="#A59A9A" transform="translate(68,176)"/>
<path d="M0 0 C0.99 0 1.98 0 3 0 C3.88639389 2.65918166 4.17989025 4.48064641 4.31640625 7.23046875 C4.35830078 8.03291016 4.40019531 8.83535156 4.44335938 9.66210938 C4.48267578 10.49548828 4.52199219 11.32886719 4.5625 12.1875 C4.60568359 13.03248047 4.64886719 13.87746094 4.69335938 14.74804688 C4.79931518 16.83184433 4.9001502 18.91590103 5 21 C6.98 21 8.96 21 11 21 C11 21.33 11 21.66 11 22 C8.69 22 6.38 22 4 22 C2.70508666 19.41017332 2.74177167 17.26529841 2.5625 14.375 C2.18731215 9.35232394 1.39381162 4.83188027 0 0 Z " fill="#9E9494" transform="translate(418,176)"/>
<path d="M0 0 C0 0.33 0 0.66 0 1 C-0.74765625 1.12117188 -1.4953125 1.24234375 -2.265625 1.3671875 C-3.25046875 1.53476562 -4.2353125 1.70234375 -5.25 1.875 C-6.22453125 2.03742188 -7.1990625 2.19984375 -8.203125 2.3671875 C-10.7882756 2.95209588 -12.66115723 3.81058851 -15 5 C-15.99 5 -16.98 5 -18 5 C-18.66 6.32 -19.32 7.64 -20 9 C-20.99 9 -21.98 9 -23 9 C-21.77742413 5.33227238 -20.20568068 4.67506624 -16.88671875 2.91796875 C-11.12552419 0.11490307 -6.29488413 -0.25179537 0 0 Z " fill="#908785" transform="translate(153,339)"/>
<path d="M0 0 C0.33 1.32 0.66 2.64 1 4 C0.34 4 -0.32 4 -1 4 C-0.938125 5.546875 -0.938125 5.546875 -0.875 7.125 C-0.99575149 10.86829627 -1.64872018 13.53734547 -3 17 C-3.99 17 -4.98 17 -6 17 C-5.35956665 10.75577479 -2.77121909 5.54243818 0 0 Z " fill="#B5ACAC" transform="translate(78,148)"/>
<path d="M0 0 C4.05671683 -0.07431978 8.11316846 -0.12868133 12.17041016 -0.16479492 C13.54971218 -0.17985422 14.92896653 -0.20030613 16.30810547 -0.22631836 C18.29373403 -0.26282415 20.27971618 -0.27814853 22.265625 -0.29296875 C23.45961914 -0.3086792 24.65361328 -0.32438965 25.88378906 -0.34057617 C29.23493371 0.02567632 30.57585392 0.7253954 33 3 C31.33388095 3.042721 29.66617115 3.04063832 28 3 C27.67 2.67 27.34 2.34 27 2 C25.00217874 1.84174742 22.99911166 1.74880829 20.99609375 1.68359375 C19.78115234 1.64169922 18.56621094 1.59980469 17.31445312 1.55664062 C16.03505859 1.51732422 14.75566406 1.47800781 13.4375 1.4375 C12.15423828 1.39431641 10.87097656 1.35113281 9.54882812 1.30664062 C6.36600147 1.200152 3.18309326 1.09814038 0 1 C0 0.67 0 0.34 0 0 Z " fill="#CFC3BF" transform="translate(342,137)"/>
<path d="M0 0 C2.64430181 2.39246354 4.46036426 4.77409655 6 8 C6.1875 11.8125 6.1875 11.8125 6 15 C3.6875 15.625 3.6875 15.625 1 16 C0.01 15.34 -0.98 14.68 -2 14 C-0.02 14 1.96 14 4 14 C3.79503906 13.32453125 3.59007812 12.6490625 3.37890625 11.953125 C3.10949219 11.06109375 2.84007812 10.1690625 2.5625 9.25 C2.29566406 8.36828125 2.02882812 7.4865625 1.75390625 6.578125 C1.11531506 4.39434165 0.53224167 2.21164502 0 0 Z " fill="#9D9491" transform="translate(165,345)"/>
<path d="M0 0 C0 4.07746885 -1.52068051 5.83198065 -4 9 C-6.25 9.875 -6.25 9.875 -8 10 C-7.67 11.65 -7.34 13.3 -7 15 C-7.99 14.34 -8.98 13.68 -10 13 C-9.48223379 8.89552608 -7.35372556 7.04300477 -4.4375 4.25 C-3.61121094 3.45078125 -2.78492188 2.6515625 -1.93359375 1.828125 C-1.29550781 1.22484375 -0.65742188 0.6215625 0 0 Z " fill="#9D9594" transform="translate(352,205)"/>
<path d="M0 0 C1.77074917 -0.02705729 3.54161711 -0.04642195 5.3125 -0.0625 C6.29863281 -0.07410156 7.28476562 -0.08570313 8.30078125 -0.09765625 C11 0 11 0 14 1 C13.67 1.66 13.34 2.32 13 3 C12.27554687 2.96519531 11.55109375 2.93039062 10.8046875 2.89453125 C5.06001832 2.73368051 0.98677034 2.76533816 -4 6 C-4 5.01 -4 4.02 -4 3 C-2.68 2.67 -1.36 2.34 0 2 C0 1.34 0 0.68 0 0 Z " fill="#A89C9B" transform="translate(404,346)"/>
<path d="M0 0 C4.00972202 3.67557852 6.45335415 7.18966896 9 12 C4.125 11.125 4.125 11.125 3 10 C2.95936168 8.33382885 2.957279 6.66611905 3 5 C2.01 4.67 1.02 4.34 0 4 C0 2.68 0 1.36 0 0 Z " fill="#B0A9A6" transform="translate(447,126)"/>
<path d="M0 0 C1.17046875 0.11085938 2.3409375 0.22171875 3.546875 0.3359375 C4.43890625 0.43132812 5.3309375 0.52671875 6.25 0.625 C6.25 0.955 6.25 1.285 6.25 1.625 C2.95 1.625 -0.35 1.625 -3.75 1.625 C-3.75 2.285 -3.75 2.945 -3.75 3.625 C-6.06 3.625 -8.37 3.625 -10.75 3.625 C-10.75 2.965 -10.75 2.305 -10.75 1.625 C-7.08460332 -0.75206418 -4.25943165 -0.42594317 0 0 Z " fill="#9C8F8F" transform="translate(234.75,396.375)"/>
<path d="M0 0 C0.6875 1.8125 0.6875 1.8125 1 4 C-0.51122133 5.98885968 -1.4132971 6.89489527 -3.90112305 7.34057617 C-4.59761963 7.32486572 -5.29411621 7.30915527 -6.01171875 7.29296875 C-6.76904297 7.28330078 -7.52636719 7.27363281 -8.30664062 7.26367188 C-9.48516602 7.2259668 -9.48516602 7.2259668 -10.6875 7.1875 C-11.88342773 7.16719727 -11.88342773 7.16719727 -13.10351562 7.14648438 C-15.06929967 7.11117089 -17.03473582 7.05736447 -19 7 C-19 6.67 -19 6.34 -19 6 C-17.44539063 5.97873047 -17.44539063 5.97873047 -15.859375 5.95703125 C-14.48953943 5.91011907 -13.11974913 5.86187173 -11.75 5.8125 C-10.72712891 5.80379883 -10.72712891 5.80379883 -9.68359375 5.79492188 C-5.7793748 5.6243492 -4.2858705 5.29351169 -1.515625 2.44921875 C-1.01546875 1.64097656 -0.5153125 0.83273437 0 0 Z " fill="#78716F" transform="translate(425,391)"/>
<path d="M0 0 C0.66 0 1.32 0 2 0 C2.53154742 1.60064843 3.04988353 3.20568874 3.5625 4.8125 C3.85253906 5.70582031 4.14257812 6.59914063 4.44140625 7.51953125 C5 10 5 10 4 13 C3.01 10.69 2.02 8.38 1 6 C0.34 6.66 -0.32 7.32 -1 8 C-0.67 5.36 -0.34 2.72 0 0 Z " fill="#9A8B8C" transform="translate(274,347)"/>
<path d="M0 0 C2.88575819 0.39803561 3.82189513 0.79009069 5.75 3.0625 C6.36875 4.0215625 6.36875 4.0215625 7 5 C6.13375 4.79375 5.2675 4.5875 4.375 4.375 C0.63571398 3.95952378 -1.54942141 4.60333724 -5 6 C-3.35 4.02 -1.7 2.04 0 0 Z " fill="#A19796" transform="translate(375,182)"/>
<path d="M0 0 C0.99386719 0.00902344 1.98773438 0.01804687 3.01171875 0.02734375 C4.15060547 0.04474609 4.15060547 0.04474609 5.3125 0.0625 C5.3125 0.3925 5.3125 0.7225 5.3125 1.0625 C2.0125 1.7225 -1.2875 2.3825 -4.6875 3.0625 C-4.3575 4.0525 -4.0275 5.0425 -3.6875 6.0625 C-5.0075 5.7325 -6.3275 5.4025 -7.6875 5.0625 C-8.0175 3.7425 -8.3475 2.4225 -8.6875 1.0625 C-5.53819107 0.01273036 -3.29935544 -0.03881595 0 0 Z " fill="#A69998" transform="translate(339.6875,375.9375)"/>
<path d="M0 0 C1.37432457 3.81756824 0.67975039 7.07255329 0 11 C-0.66 11 -1.32 11 -2 11 C-2 11.66 -2 12.32 -2 13 C-2.66 13 -3.32 13 -4 13 C-2.93204565 8.49933525 -1.85961414 4.2505466 0 0 Z " fill="#A09997" transform="translate(263,357)"/>
<path d="M0 0 C0.99 0.495 0.99 0.495 2 1 C2.4140625 3.50390625 2.4140625 3.50390625 2.625 6.5625 C2.69976562 7.57441406 2.77453125 8.58632812 2.8515625 9.62890625 C2.92503906 10.80259766 2.92503906 10.80259766 3 12 C2.01 11.34 1.02 10.68 0 10 C-0.29296875 7.6171875 -0.29296875 7.6171875 -0.1875 4.875 C-0.16042969 3.96492187 -0.13335937 3.05484375 -0.10546875 2.1171875 C-0.07066406 1.41851562 -0.03585938 0.71984375 0 0 Z " fill="#BAB2AC" transform="translate(117,203)"/>
<path d="M0 0 C0.99 1.32 1.98 2.64 3 4 C-3.6 4 -10.2 4 -17 4 C-17 3.67 -17 3.34 -17 3 C-15.85660156 2.95101563 -14.71320313 2.90203125 -13.53515625 2.8515625 C-12.04424527 2.77654811 -10.55336108 2.70099972 -9.0625 2.625 C-8.30775391 2.5940625 -7.55300781 2.563125 -6.77539062 2.53125 C-4.84492605 2.4273685 -2.92057919 2.22104386 -1 2 C-0.67 1.34 -0.34 0.68 0 0 Z " fill="#99908E" transform="translate(284,375)"/>
<path d="M0 0 C3 1 3 1 4 3 C4.07033769 4.87379605 4.0843022 6.75001102 4.0625 8.625 C4.05347656 9.62789063 4.04445313 10.63078125 4.03515625 11.6640625 C4.02355469 12.43492187 4.01195312 13.20578125 4 14 C2.68 13.67 1.36 13.34 0 13 C0.66 12.01 1.32 11.02 2 10 C2.33706208 6.03952054 2.09429461 3.40322874 0 0 Z " fill="#A19897" transform="translate(346,352)"/>
<path d="M0 0 C1.12894876 0.93274109 2.25300876 1.87140122 3.375 2.8125 C4.00148438 3.33457031 4.62796875 3.85664063 5.2734375 4.39453125 C7 6 7 6 9 9 C8.01 9.495 8.01 9.495 7 10 C7 9.34 7 8.68 7 8 C5.68 7.67 4.36 7.34 3 7 C3 6.01 3 5.02 3 4 C2.01 3.67 1.02 3.34 0 3 C0 2.01 0 1.02 0 0 Z " fill="#A9A39F" transform="translate(446,251)"/>
<path d="M0 0 C1 3 1 3 0.22265625 4.82421875 C-0.8515625 6.54947917 -1.92578125 8.27473958 -3 10 C-3.99 10 -4.98 10 -6 10 C-4.6302836 6.00499382 -2.74277578 3.19990508 0 0 Z " fill="#B6ADAC" transform="translate(88,132)"/>
<path d="M0 0 C0.66 0 1.32 0 2 0 C2 0.99 2 1.98 2 3 C2.66 3 3.32 3 4 3 C4 4.32 4 5.64 4 7 C6.31 7 8.62 7 11 7 C11 7.33 11 7.66 11 8 C8.36 8 5.72 8 3 8 C0 2.25 0 2.25 0 0 Z " fill="#B1A6A6" transform="translate(293,397)"/>
<path d="M0 0 C5.94 2.475 5.94 2.475 12 5 C12 5.33 12 5.66 12 6 C4.375 5.125 4.375 5.125 1 4 C0.67 2.68 0.34 1.36 0 0 Z " fill="#A8A19D" transform="translate(401,362)"/>
<path d="M0 0 C4.62 0.99 9.24 1.98 14 3 C14 3.33 14 3.66 14 4 C8.0819503 5.32854177 5.22270869 4.66464729 0 2 C0 1.34 0 0.68 0 0 Z " fill="#99928E" transform="translate(198,395)"/>
<path d="M0 0 C3.63 0 7.26 0 11 0 C11.66 1.65 12.32 3.3 13 5 C12.34 5.66 11.68 6.32 11 7 C10.67 5.02 10.34 3.04 10 1 C6.7 1 3.4 1 0 1 C0 0.67 0 0.34 0 0 Z " fill="#D6CCCC" transform="translate(279,384)"/>
<path d="M0 0 C1.60495567 0.11442461 3.20898119 0.24194694 4.8125 0.375 C5.70582031 0.44460938 6.59914063 0.51421875 7.51953125 0.5859375 C10 1 10 1 13 3 C13 3.66 13 4.32 13 5 C11.58208592 4.54554036 10.16571954 4.08625056 8.75 3.625 C7.96109375 3.36976563 7.1721875 3.11453125 6.359375 2.8515625 C4.13372042 2.04826333 2.09068328 1.10288338 0 0 Z " fill="#968D8C" transform="translate(410,376)"/>
<path d="M0 0 C4.05281712 1.22527029 7.44360764 2.69880494 11 5 C8 6 8 6 5 5 C5 4.34 5 3.68 5 3 C3.35 2.67 1.7 2.34 0 2 C0 1.34 0 0.68 0 0 Z " fill="#AFA7A4" transform="translate(411,99)"/>
<path d="M0 0 C-1.13126558 3.39379675 -2.22666082 4.78132865 -5 7 C-7.13671875 6.609375 -7.13671875 6.609375 -9 6 C-7.8803014 4.99406757 -6.7540588 3.9954151 -5.625 3 C-4.68527344 2.1646875 -4.68527344 2.1646875 -3.7265625 1.3125 C-2 0 -2 0 0 0 Z " fill="#A79E9E" transform="translate(112,109)"/>
<path d="M0 0 C1.41750563 0.11509661 2.83401169 0.24253658 4.25 0.375 C5.03890625 0.44460937 5.8278125 0.51421875 6.640625 0.5859375 C9.085877 1.01507113 10.84836903 1.78600638 13 3 C4.80743982 3.4726477 4.80743982 3.4726477 1.4375 1.5 C0.963125 1.005 0.48875 0.51 0 0 Z " fill="#A49B99" transform="translate(379,89)"/>
<path d="M0 0 C1.12588014 0.95729916 2.2506715 1.91587895 3.375 2.875 C4.00148437 3.40867187 4.62796875 3.94234375 5.2734375 4.4921875 C6.55836651 5.61432007 7.79371975 6.79371975 9 8 C6.03 7.505 6.03 7.505 3 7 C3 6.34 3 5.68 3 5 C2.01 4.67 1.02 4.34 0 4 C0 2.68 0 1.36 0 0 Z " fill="#8B8480" transform="translate(134,389)"/>
<path d="M0 0 C1.04293785 3.38954801 1.30754089 6.46327974 1 10 C0.01 10.66 -0.98 11.32 -2 12 C-2.17835515 7.45194365 -1.99785435 4.1205746 0 0 Z " fill="#BDB6B4" transform="translate(256,375)"/>
<path d="M0 0 C1.32 0.66 2.64 1.32 4 2 C3.01 2 2.02 2 1 2 C0.34 4.31 -0.32 6.62 -1 9 C-1.33 9 -1.66 9 -2 9 C-1.125 1.125 -1.125 1.125 0 0 Z " fill="#8D8181" transform="translate(260,385)"/>
<path d="M0 0 C4.35535069 1.16142685 6.64619703 2.07699505 9 6 C7.35 5.67 5.7 5.34 4 5 C4 4.34 4 3.68 4 3 C2.68 2.34 1.36 1.68 0 1 C0 0.67 0 0.34 0 0 Z " fill="#9D9592" transform="translate(422,371)"/>
<path d="M0 0 C2.18975773 3.28463659 2.99806563 6.20696275 4 10 C3.01 9.67 2.02 9.34 1 9 C0.67 6.03 0.34 3.06 0 0 Z " fill="#A09895" transform="translate(284,351)"/>
<path d="M0 0 C0.66 0.33 1.32 0.66 2 1 C1.67 1.99 1.34 2.98 1 4 C0.01 4 -0.98 4 -2 4 C-2.33 4.99 -2.66 5.98 -3 7 C-3.66 7 -4.32 7 -5 7 C-3.70700306 4.11562221 -2.34058637 2.12780579 0 0 Z " fill="#A9A19E" transform="translate(190,345)"/>
<path d="M0 0 C1.32 0.33 2.64 0.66 4 1 C3.0409375 1.6496875 3.0409375 1.6496875 2.0625 2.3125 C-0.26746003 3.91239177 -0.26746003 3.91239177 -1 7 C-1.66 7 -2.32 7 -3 7 C-1.125 2.25 -1.125 2.25 0 0 Z " fill="#A69E9C" transform="translate(394,345)"/>
<path d="M0 0 C0.99 0 1.98 0 3 0 C3.66 2.97 4.32 5.94 5 9 C2.67527795 6.14693203 1.2491742 3.45925163 0 0 Z " fill="#A09998" transform="translate(413,166)"/>
</svg>
