<svg width="175" height="88" viewBox="0 0 175 88" fill="none" xmlns="http://www.w3.org/2000/svg">
<path d="M43.8105 19.9346C40.6755 19.9346 37.5703 20.5523 34.6738 21.752C31.7774 22.9517 29.1446 24.71 26.9277 26.9268C24.7108 29.1437 22.9528 31.7763 21.7529 34.6729C20.5531 37.5695 19.9355 40.6742 19.9355 43.8096H19.9336C19.9336 46.9449 20.5511 50.0496 21.751 52.9463C22.9508 55.8428 24.7099 58.4745 26.9268 60.6914C29.1437 62.9082 31.7764 64.6674 34.6729 65.8672C37.5691 67.0667 40.6738 67.6845 43.8086 67.6846V87.6191C38.0559 87.6191 32.3588 86.4855 27.0439 84.2842C21.7289 82.0826 16.8991 78.855 12.8311 74.7871C8.76313 70.7191 5.53558 65.8892 3.33398 60.5742C1.1325 55.2592 1.38304e-05 49.5625 0 43.8096C2.13979e-06 38.0564 1.13431 32.3592 3.33594 27.0439C5.53756 21.729 8.76413 16.899 12.832 12.8311C16.8999 8.76328 21.7301 5.53651 27.0449 3.33496C32.3599 1.13354 38.0577 -6.86023e-08 43.8105 0V19.9346ZM119.481 87.6191H43.8105V67.7061H119.481V87.6191ZM174.021 87.4258L146.804 87.5918L110.964 51.5889L124.598 37.9443L174.021 87.4258ZM119.483 0C125.235 0.000599599 130.93 1.13397 136.244 3.33496C141.559 5.53653 146.389 8.76323 150.457 12.8311C154.525 16.899 157.753 21.7289 159.954 27.0439C162.156 32.3591 163.289 38.0565 163.289 43.8096H143.354C143.354 40.6743 142.737 37.5695 141.537 34.6729C140.337 31.7763 138.578 29.1437 136.361 26.9268C134.145 24.7101 131.512 22.9517 128.616 21.752C125.72 20.5522 122.615 19.9347 119.479 19.9346V19.9131H43.8115V0H119.483Z" fill="black"/>
</svg>
