<svg width="660" height="170" viewBox="0 0 660 170" fill="none" xmlns="http://www.w3.org/2000/svg">
<path d="M22.824 2.024H32.04L37.872 18.944L43.776 2.024H52.92L44.136 25.28L50.616 41.552L65.088 1.88H75.888L55.44 53H46.872L37.872 31.544L28.944 53H20.376L0 1.88H10.656L25.2 41.552L31.536 25.28L22.824 2.024ZM115.253 53H105.605V31.832C105.605 28.904 105.029 26.72 103.877 25.28C102.773 23.84 101.237 23.12 99.2689 23.12C98.1169 23.12 96.8929 23.456 95.5969 24.128C94.3009 24.8 93.1249 25.736 92.0689 26.936C91.0609 28.088 90.3169 29.432 89.8369 30.968V53H80.1889V0.439999H89.8369V22.256C91.2289 19.856 93.1249 17.984 95.5249 16.64C97.9249 15.296 100.541 14.624 103.373 14.624C105.821 14.624 107.813 15.056 109.349 15.92C110.885 16.736 112.085 17.864 112.949 19.304C113.813 20.696 114.413 22.28 114.749 24.056C115.085 25.784 115.253 27.584 115.253 29.456V53ZM141.138 53.72C138.114 53.72 135.378 53.216 132.93 52.208C130.482 51.152 128.394 49.736 126.666 47.96C124.938 46.136 123.594 44.072 122.634 41.768C121.722 39.416 121.266 36.944 121.266 34.352C121.266 30.752 122.058 27.464 123.642 24.488C125.274 21.512 127.578 19.136 130.554 17.36C133.578 15.536 137.13 14.624 141.21 14.624C145.338 14.624 148.866 15.536 151.794 17.36C154.722 19.136 156.954 21.512 158.49 24.488C160.074 27.416 160.866 30.584 160.866 33.992C160.866 34.568 160.842 35.168 160.794 35.792C160.746 36.368 160.698 36.848 160.65 37.232H131.49C131.682 39.152 132.234 40.832 133.146 42.272C134.106 43.712 135.306 44.816 136.746 45.584C138.234 46.304 139.818 46.664 141.498 46.664C143.418 46.664 145.218 46.208 146.898 45.296C148.626 44.336 149.802 43.088 150.426 41.552L158.706 43.856C157.794 45.776 156.474 47.48 154.746 48.968C153.066 50.456 151.074 51.632 148.77 52.496C146.466 53.312 143.922 53.72 141.138 53.72ZM131.274 31.112H151.002C150.81 29.192 150.258 27.536 149.346 26.144C148.482 24.704 147.33 23.6 145.89 22.832C144.45 22.016 142.842 21.608 141.066 21.608C139.338 21.608 137.754 22.016 136.314 22.832C134.922 23.6 133.77 24.704 132.858 26.144C131.994 27.536 131.466 29.192 131.274 31.112ZM189.208 23.624C186.28 23.624 183.664 24.2 181.36 25.352C179.056 26.456 177.4 28.064 176.392 30.176V53H166.744V15.272H175.6V23.336C176.944 20.744 178.648 18.704 180.712 17.216C182.776 15.728 184.96 14.912 187.264 14.768C187.792 14.768 188.2 14.768 188.488 14.768C188.776 14.768 189.016 14.792 189.208 14.84V23.624ZM211.591 53.72C208.567 53.72 205.831 53.216 203.383 52.208C200.935 51.152 198.847 49.736 197.119 47.96C195.391 46.136 194.047 44.072 193.087 41.768C192.175 39.416 191.719 36.944 191.719 34.352C191.719 30.752 192.511 27.464 194.095 24.488C195.727 21.512 198.031 19.136 201.007 17.36C204.031 15.536 207.583 14.624 211.663 14.624C215.791 14.624 219.319 15.536 222.247 17.36C225.175 19.136 227.407 21.512 228.943 24.488C230.527 27.416 231.319 30.584 231.319 33.992C231.319 34.568 231.295 35.168 231.247 35.792C231.199 36.368 231.151 36.848 231.103 37.232H201.943C202.135 39.152 202.687 40.832 203.599 42.272C204.559 43.712 205.759 44.816 207.199 45.584C208.687 46.304 210.271 46.664 211.951 46.664C213.871 46.664 215.671 46.208 217.351 45.296C219.079 44.336 220.255 43.088 220.879 41.552L229.159 43.856C228.247 45.776 226.927 47.48 225.199 48.968C223.519 50.456 221.527 51.632 219.223 52.496C216.919 53.312 214.375 53.72 211.591 53.72ZM201.727 31.112H221.455C221.263 29.192 220.711 27.536 219.799 26.144C218.935 24.704 217.783 23.6 216.343 22.832C214.903 22.016 213.295 21.608 211.519 21.608C209.791 21.608 208.207 22.016 206.767 22.832C205.375 23.6 204.223 24.704 203.311 26.144C202.447 27.536 201.919 29.192 201.727 31.112ZM251.902 41.84C251.902 39.392 252.574 37.256 253.918 35.432C255.31 33.56 257.23 32.12 259.678 31.112C262.126 30.104 264.934 29.6 268.102 29.6C269.686 29.6 271.294 29.72 272.926 29.96C274.558 30.2 275.974 30.584 277.174 31.112V29.096C277.174 26.696 276.454 24.848 275.014 23.552C273.622 22.256 271.534 21.608 268.75 21.608C266.686 21.608 264.718 21.968 262.846 22.688C260.974 23.408 259.006 24.464 256.942 25.856L253.846 19.52C256.342 17.888 258.886 16.664 261.478 15.848C264.118 15.032 266.878 14.624 269.758 14.624C275.134 14.624 279.31 15.968 282.286 18.656C285.31 21.344 286.822 25.184 286.822 30.176V42.2C286.822 43.208 286.99 43.928 287.326 44.36C287.71 44.792 288.31 45.056 289.126 45.152V53C288.262 53.144 287.47 53.264 286.75 53.36C286.078 53.456 285.502 53.504 285.022 53.504C283.102 53.504 281.638 53.072 280.63 52.208C279.67 51.344 279.07 50.288 278.83 49.04L278.614 47.096C276.982 49.208 274.942 50.84 272.494 51.992C270.046 53.144 267.55 53.72 265.006 53.72C262.51 53.72 260.254 53.216 258.238 52.208C256.27 51.152 254.71 49.736 253.558 47.96C252.454 46.136 251.902 44.096 251.902 41.84ZM275.374 43.784C275.902 43.208 276.334 42.632 276.67 42.056C277.006 41.48 277.174 40.952 277.174 40.472V36.656C276.022 36.176 274.774 35.816 273.43 35.576C272.086 35.288 270.814 35.144 269.614 35.144C267.118 35.144 265.054 35.696 263.422 36.8C261.838 37.856 261.046 39.272 261.046 41.048C261.046 42.008 261.31 42.92 261.838 43.784C262.366 44.648 263.134 45.344 264.142 45.872C265.15 46.4 266.35 46.664 267.742 46.664C269.182 46.664 270.598 46.4 271.99 45.872C273.382 45.296 274.51 44.6 275.374 43.784ZM318.445 53.72C315.517 53.72 312.925 53.072 310.669 51.776C308.461 50.432 306.733 48.632 305.485 46.376V68.336H295.837V15.272H304.261V21.752C305.701 19.544 307.525 17.816 309.733 16.568C311.941 15.272 314.461 14.624 317.293 14.624C319.837 14.624 322.165 15.128 324.277 16.136C326.437 17.144 328.309 18.56 329.893 20.384C331.477 22.16 332.701 24.224 333.565 26.576C334.477 28.88 334.933 31.376 334.933 34.064C334.933 37.712 334.213 41.024 332.773 44C331.381 46.976 329.437 49.352 326.941 51.128C324.493 52.856 321.661 53.72 318.445 53.72ZM315.205 45.512C316.693 45.512 318.037 45.2 319.237 44.576C320.437 43.952 321.469 43.112 322.333 42.056C323.245 40.952 323.917 39.728 324.349 38.384C324.829 36.992 325.069 35.552 325.069 34.064C325.069 32.48 324.805 31.016 324.277 29.672C323.797 28.328 323.077 27.152 322.117 26.144C321.157 25.088 320.029 24.272 318.733 23.696C317.485 23.12 316.117 22.832 314.629 22.832C313.717 22.832 312.781 23 311.821 23.336C310.909 23.624 310.021 24.056 309.157 24.632C308.293 25.208 307.525 25.88 306.853 26.648C306.229 27.416 305.773 28.256 305.485 29.168V38.024C306.061 39.416 306.829 40.688 307.789 41.84C308.797 42.992 309.949 43.904 311.245 44.576C312.541 45.2 313.861 45.512 315.205 45.512ZM364.078 53.72C361.15 53.72 358.558 53.072 356.302 51.776C354.094 50.432 352.366 48.632 351.118 46.376V68.336H341.47V15.272H349.894V21.752C351.334 19.544 353.158 17.816 355.366 16.568C357.574 15.272 360.094 14.624 362.926 14.624C365.47 14.624 367.798 15.128 369.91 16.136C372.07 17.144 373.942 18.56 375.526 20.384C377.11 22.16 378.334 24.224 379.198 26.576C380.11 28.88 380.566 31.376 380.566 34.064C380.566 37.712 379.846 41.024 378.406 44C377.014 46.976 375.07 49.352 372.574 51.128C370.126 52.856 367.294 53.72 364.078 53.72ZM360.838 45.512C362.326 45.512 363.67 45.2 364.87 44.576C366.07 43.952 367.102 43.112 367.966 42.056C368.878 40.952 369.55 39.728 369.982 38.384C370.462 36.992 370.702 35.552 370.702 34.064C370.702 32.48 370.438 31.016 369.91 29.672C369.43 28.328 368.71 27.152 367.75 26.144C366.79 25.088 365.662 24.272 364.366 23.696C363.118 23.12 361.75 22.832 360.262 22.832C359.35 22.832 358.414 23 357.454 23.336C356.542 23.624 355.654 24.056 354.79 24.632C353.926 25.208 353.158 25.88 352.486 26.648C351.862 27.416 351.406 28.256 351.118 29.168V38.024C351.694 39.416 352.462 40.688 353.422 41.84C354.43 42.992 355.582 43.904 356.878 44.576C358.174 45.2 359.494 45.512 360.838 45.512ZM387.031 0.439999H396.679V40.904C396.679 42.632 396.967 43.808 397.543 44.432C398.119 45.008 398.911 45.296 399.919 45.296C400.687 45.296 401.479 45.2 402.295 45.008C403.111 44.816 403.831 44.576 404.455 44.288L405.751 51.632C404.455 52.256 402.943 52.736 401.215 53.072C399.487 53.408 397.927 53.576 396.535 53.576C393.511 53.576 391.159 52.784 389.479 51.2C387.847 49.568 387.031 47.264 387.031 44.288V0.439999ZM409.955 53V15.272H419.603V53H409.955ZM409.955 10.016V0.439999H419.603V10.016H409.955ZM445.874 53.72C442.802 53.72 440.042 53.216 437.594 52.208C435.146 51.152 433.058 49.712 431.33 47.888C429.602 46.016 428.258 43.904 427.298 41.552C426.386 39.2 425.93 36.728 425.93 34.136C425.93 30.584 426.722 27.344 428.306 24.416C429.938 21.44 432.242 19.064 435.218 17.288C438.194 15.512 441.722 14.624 445.802 14.624C449.882 14.624 453.386 15.512 456.314 17.288C459.242 19.064 461.426 21.392 462.866 24.272L453.434 27.152C452.618 25.76 451.538 24.704 450.194 23.984C448.85 23.216 447.362 22.832 445.73 22.832C443.906 22.832 442.226 23.312 440.69 24.272C439.202 25.184 438.026 26.504 437.162 28.232C436.298 29.912 435.866 31.88 435.866 34.136C435.866 36.344 436.298 38.312 437.162 40.04C438.074 41.72 439.274 43.064 440.762 44.072C442.25 45.032 443.906 45.512 445.73 45.512C446.882 45.512 447.962 45.32 448.97 44.936C450.026 44.552 450.962 44.024 451.778 43.352C452.594 42.68 453.194 41.912 453.578 41.048L463.01 43.928C462.146 45.8 460.874 47.48 459.194 48.968C457.562 50.456 455.618 51.632 453.362 52.496C451.154 53.312 448.658 53.72 445.874 53.72ZM466.355 41.84C466.355 39.392 467.027 37.256 468.371 35.432C469.763 33.56 471.683 32.12 474.131 31.112C476.579 30.104 479.387 29.6 482.555 29.6C484.139 29.6 485.747 29.72 487.379 29.96C489.011 30.2 490.427 30.584 491.627 31.112V29.096C491.627 26.696 490.907 24.848 489.467 23.552C488.075 22.256 485.987 21.608 483.203 21.608C481.139 21.608 479.171 21.968 477.299 22.688C475.427 23.408 473.459 24.464 471.395 25.856L468.299 19.52C470.795 17.888 473.339 16.664 475.931 15.848C478.571 15.032 481.331 14.624 484.211 14.624C489.587 14.624 493.763 15.968 496.739 18.656C499.763 21.344 501.275 25.184 501.275 30.176V42.2C501.275 43.208 501.443 43.928 501.779 44.36C502.163 44.792 502.763 45.056 503.579 45.152V53C502.715 53.144 501.923 53.264 501.203 53.36C500.531 53.456 499.955 53.504 499.475 53.504C497.555 53.504 496.091 53.072 495.083 52.208C494.123 51.344 493.523 50.288 493.283 49.04L493.067 47.096C491.435 49.208 489.395 50.84 486.947 51.992C484.499 53.144 482.003 53.72 479.459 53.72C476.963 53.72 474.707 53.216 472.691 52.208C470.723 51.152 469.163 49.736 468.011 47.96C466.907 46.136 466.355 44.096 466.355 41.84ZM489.827 43.784C490.355 43.208 490.787 42.632 491.123 42.056C491.459 41.48 491.627 40.952 491.627 40.472V36.656C490.475 36.176 489.227 35.816 487.883 35.576C486.539 35.288 485.267 35.144 484.067 35.144C481.571 35.144 479.507 35.696 477.875 36.8C476.291 37.856 475.499 39.272 475.499 41.048C475.499 42.008 475.763 42.92 476.291 43.784C476.819 44.648 477.587 45.344 478.595 45.872C479.603 46.4 480.803 46.664 482.195 46.664C483.635 46.664 485.051 46.4 486.443 45.872C487.835 45.296 488.963 44.6 489.827 43.784ZM532.547 51.056C531.731 51.392 530.747 51.776 529.595 52.208C528.443 52.64 527.195 52.976 525.851 53.216C524.555 53.504 523.235 53.648 521.891 53.648C520.115 53.648 518.483 53.336 516.995 52.712C515.507 52.088 514.307 51.104 513.395 49.76C512.531 48.368 512.099 46.568 512.099 44.36V22.688H507.131V15.272H512.099V3.032H521.747V15.272H529.667V22.688H521.747V41.12C521.795 42.416 522.155 43.352 522.827 43.928C523.499 44.504 524.339 44.792 525.347 44.792C526.355 44.792 527.339 44.624 528.299 44.288C529.259 43.952 530.027 43.664 530.603 43.424L532.547 51.056ZM537.572 53V15.272H547.22V53H537.572ZM537.572 10.016V0.439999H547.22V10.016H537.572ZM573.347 53.72C570.275 53.72 567.515 53.216 565.067 52.208C562.619 51.152 560.531 49.712 558.803 47.888C557.123 46.064 555.827 43.976 554.915 41.624C554.003 39.272 553.547 36.8 553.547 34.208C553.547 31.568 554.003 29.072 554.915 26.72C555.827 24.368 557.123 22.28 558.803 20.456C560.531 18.632 562.619 17.216 565.067 16.208C567.515 15.152 570.275 14.624 573.347 14.624C576.419 14.624 579.155 15.152 581.555 16.208C584.003 17.216 586.091 18.632 587.819 20.456C589.547 22.28 590.843 24.368 591.707 26.72C592.619 29.072 593.075 31.568 593.075 34.208C593.075 36.8 592.619 39.272 591.707 41.624C590.843 43.976 589.547 46.064 587.819 47.888C586.139 49.712 584.075 51.152 581.627 52.208C579.179 53.216 576.419 53.72 573.347 53.72ZM563.483 34.208C563.483 36.416 563.915 38.384 564.779 40.112C565.643 41.792 566.819 43.112 568.307 44.072C569.795 45.032 571.475 45.512 573.347 45.512C575.171 45.512 576.827 45.032 578.315 44.072C579.803 43.064 580.979 41.72 581.843 40.04C582.755 38.312 583.211 36.344 583.211 34.136C583.211 31.976 582.755 30.032 581.843 28.304C580.979 26.576 579.803 25.232 578.315 24.272C576.827 23.312 575.171 22.832 573.347 22.832C571.475 22.832 569.795 23.336 568.307 24.344C566.819 25.304 565.643 26.648 564.779 28.376C563.915 30.056 563.483 32 563.483 34.208ZM634.651 53H625.003V31.832C625.003 28.808 624.475 26.6 623.419 25.208C622.363 23.816 620.899 23.12 619.027 23.12C617.731 23.12 616.411 23.456 615.067 24.128C613.771 24.8 612.595 25.736 611.539 26.936C610.483 28.088 609.715 29.432 609.235 30.968V53H599.587V15.272H608.299V22.256C609.259 20.624 610.483 19.256 611.971 18.152C613.459 17 615.163 16.136 617.083 15.56C619.051 14.936 621.115 14.624 623.275 14.624C625.627 14.624 627.547 15.056 629.035 15.92C630.571 16.736 631.723 17.864 632.491 19.304C633.307 20.696 633.859 22.28 634.147 24.056C634.483 25.832 634.651 27.632 634.651 29.456V53ZM63 153H53.352V131.832C53.352 128.856 52.824 126.672 51.768 125.28C50.76 123.84 49.344 123.12 47.52 123.12C45.648 123.12 43.848 123.864 42.12 125.352C40.44 126.792 39.24 128.688 38.52 131.04V153H28.872V131.832C28.872 128.808 28.344 126.6 27.288 125.208C26.28 123.816 24.864 123.12 23.04 123.12C21.168 123.12 19.368 123.84 17.64 125.28C15.96 126.72 14.76 128.616 14.04 130.968V153H4.392V115.272H13.104V122.256C14.544 119.808 16.464 117.936 18.864 116.64C21.264 115.296 24.024 114.624 27.144 114.624C30.264 114.624 32.688 115.392 34.416 116.928C36.192 118.464 37.32 120.36 37.8 122.616C39.336 120.024 41.28 118.056 43.632 116.712C46.032 115.32 48.72 114.624 51.696 114.624C54.048 114.624 55.944 115.056 57.384 115.92C58.872 116.736 60.024 117.864 60.84 119.304C61.656 120.696 62.208 122.28 62.496 124.056C62.832 125.832 63 127.632 63 129.456V153ZM88.8958 153.72C85.8718 153.72 83.1358 153.216 80.6878 152.208C78.2398 151.152 76.1518 149.736 74.4238 147.96C72.6958 146.136 71.3518 144.072 70.3918 141.768C69.4798 139.416 69.0238 136.944 69.0238 134.352C69.0238 130.752 69.8158 127.464 71.3998 124.488C73.0318 121.512 75.3358 119.136 78.3118 117.36C81.3358 115.536 84.8878 114.624 88.9678 114.624C93.0958 114.624 96.6238 115.536 99.5518 117.36C102.48 119.136 104.712 121.512 106.248 124.488C107.832 127.416 108.624 130.584 108.624 133.992C108.624 134.568 108.6 135.168 108.552 135.792C108.504 136.368 108.456 136.848 108.408 137.232H79.2478C79.4398 139.152 79.9918 140.832 80.9038 142.272C81.8638 143.712 83.0638 144.816 84.5038 145.584C85.9918 146.304 87.5758 146.664 89.2558 146.664C91.1758 146.664 92.9758 146.208 94.6558 145.296C96.3838 144.336 97.5598 143.088 98.1838 141.552L106.464 143.856C105.552 145.776 104.232 147.48 102.504 148.968C100.824 150.456 98.8318 151.632 96.5278 152.496C94.2238 153.312 91.6798 153.72 88.8958 153.72ZM79.0318 131.112H98.7598C98.5678 129.192 98.0158 127.536 97.1038 126.144C96.2398 124.704 95.0878 123.6 93.6478 122.832C92.2078 122.016 90.5998 121.608 88.8238 121.608C87.0958 121.608 85.5118 122.016 84.0718 122.832C82.6798 123.6 81.5278 124.704 80.6158 126.144C79.7518 127.536 79.2238 129.192 79.0318 131.112ZM131.997 153.72C128.973 153.72 126.237 153.216 123.789 152.208C121.341 151.152 119.253 149.736 117.525 147.96C115.797 146.136 114.453 144.072 113.493 141.768C112.581 139.416 112.125 136.944 112.125 134.352C112.125 130.752 112.917 127.464 114.501 124.488C116.133 121.512 118.437 119.136 121.413 117.36C124.437 115.536 127.989 114.624 132.069 114.624C136.197 114.624 139.725 115.536 142.653 117.36C145.581 119.136 147.813 121.512 149.349 124.488C150.933 127.416 151.725 130.584 151.725 133.992C151.725 134.568 151.701 135.168 151.653 135.792C151.605 136.368 151.557 136.848 151.509 137.232H122.349C122.541 139.152 123.093 140.832 124.005 142.272C124.965 143.712 126.165 144.816 127.605 145.584C129.093 146.304 130.677 146.664 132.357 146.664C134.277 146.664 136.077 146.208 137.757 145.296C139.485 144.336 140.661 143.088 141.285 141.552L149.565 143.856C148.653 145.776 147.333 147.48 145.605 148.968C143.925 150.456 141.933 151.632 139.629 152.496C137.325 153.312 134.781 153.72 131.997 153.72ZM122.133 131.112H141.861C141.669 129.192 141.117 127.536 140.205 126.144C139.341 124.704 138.189 123.6 136.749 122.832C135.309 122.016 133.701 121.608 131.925 121.608C130.197 121.608 128.613 122.016 127.173 122.832C125.781 123.6 124.629 124.704 123.717 126.144C122.853 127.536 122.325 129.192 122.133 131.112ZM179.859 151.056C179.043 151.392 178.059 151.776 176.907 152.208C175.755 152.64 174.507 152.976 173.163 153.216C171.867 153.504 170.547 153.648 169.203 153.648C167.427 153.648 165.795 153.336 164.307 152.712C162.819 152.088 161.619 151.104 160.707 149.76C159.843 148.368 159.411 146.568 159.411 144.36V122.688H154.443V115.272H159.411V103.032H169.059V115.272H176.979V122.688H169.059V141.12C169.107 142.416 169.467 143.352 170.139 143.928C170.811 144.504 171.651 144.792 172.659 144.792C173.667 144.792 174.651 144.624 175.611 144.288C176.571 143.952 177.339 143.664 177.915 143.424L179.859 151.056ZM198.78 153.72C195.564 153.72 192.492 153.192 189.564 152.136C186.636 151.08 184.116 149.52 182.004 147.456L185.46 141.192C187.716 143.016 189.924 144.36 192.084 145.224C194.292 146.088 196.404 146.52 198.42 146.52C200.292 146.52 201.78 146.184 202.884 145.512C204.036 144.84 204.612 143.832 204.612 142.488C204.612 141.576 204.3 140.88 203.676 140.4C203.052 139.872 202.14 139.416 200.94 139.032C199.788 138.648 198.372 138.216 196.692 137.736C193.908 136.824 191.58 135.936 189.708 135.072C187.836 134.208 186.42 133.128 185.46 131.832C184.548 130.488 184.092 128.784 184.092 126.72C184.092 124.224 184.716 122.088 185.964 120.312C187.26 118.488 189.036 117.072 191.292 116.064C193.596 115.056 196.284 114.552 199.356 114.552C202.044 114.552 204.588 114.984 206.988 115.848C209.388 116.664 211.572 118.008 213.54 119.88L209.652 126C207.732 124.512 205.908 123.432 204.18 122.76C202.452 122.04 200.7 121.68 198.924 121.68C197.916 121.68 196.956 121.8 196.044 122.04C195.18 122.28 194.46 122.688 193.884 123.264C193.356 123.792 193.092 124.56 193.092 125.568C193.092 126.48 193.332 127.2 193.812 127.728C194.34 128.208 195.108 128.64 196.116 129.024C197.172 129.408 198.444 129.84 199.932 130.32C202.956 131.184 205.5 132.072 207.564 132.984C209.676 133.896 211.26 135.024 212.316 136.368C213.372 137.664 213.9 139.464 213.9 141.768C213.9 145.512 212.532 148.44 209.796 150.552C207.06 152.664 203.388 153.72 198.78 153.72ZM651.332 153V142.632H659.252V153H651.332Z" fill="url(#paint0_linear_58_6126)"/>
<path d="M238.695 153V101.88H248.631V153H238.695ZM293.425 153H283.777V131.832C283.777 128.808 283.249 126.6 282.193 125.208C281.137 123.816 279.673 123.12 277.801 123.12C276.505 123.12 275.185 123.456 273.841 124.128C272.545 124.8 271.369 125.736 270.313 126.936C269.257 128.088 268.489 129.432 268.009 130.968V153H258.361V115.272H267.073V122.256C268.033 120.624 269.257 119.256 270.745 118.152C272.233 117 273.937 116.136 275.857 115.56C277.825 114.936 279.889 114.624 282.049 114.624C284.401 114.624 286.321 115.056 287.809 115.92C289.345 116.736 290.497 117.864 291.265 119.304C292.081 120.696 292.633 122.28 292.921 124.056C293.257 125.832 293.425 127.632 293.425 129.456V153ZM324.211 151.056C323.395 151.392 322.411 151.776 321.259 152.208C320.107 152.64 318.859 152.976 317.515 153.216C316.219 153.504 314.899 153.648 313.555 153.648C311.779 153.648 310.147 153.336 308.659 152.712C307.171 152.088 305.971 151.104 305.059 149.76C304.195 148.368 303.763 146.568 303.763 144.36V122.688H298.795V115.272H303.763V103.032H313.411V115.272H321.331V122.688H313.411V141.12C313.459 142.416 313.819 143.352 314.491 143.928C315.163 144.504 316.003 144.792 317.011 144.792C318.019 144.792 319.003 144.624 319.963 144.288C320.923 143.952 321.691 143.664 322.267 143.424L324.211 151.056ZM346.31 153.72C343.286 153.72 340.55 153.216 338.102 152.208C335.654 151.152 333.566 149.736 331.838 147.96C330.11 146.136 328.766 144.072 327.806 141.768C326.894 139.416 326.438 136.944 326.438 134.352C326.438 130.752 327.23 127.464 328.814 124.488C330.446 121.512 332.75 119.136 335.726 117.36C338.75 115.536 342.302 114.624 346.382 114.624C350.51 114.624 354.038 115.536 356.966 117.36C359.894 119.136 362.126 121.512 363.662 124.488C365.246 127.416 366.038 130.584 366.038 133.992C366.038 134.568 366.014 135.168 365.966 135.792C365.918 136.368 365.87 136.848 365.822 137.232H336.662C336.854 139.152 337.406 140.832 338.318 142.272C339.278 143.712 340.478 144.816 341.918 145.584C343.406 146.304 344.99 146.664 346.67 146.664C348.59 146.664 350.39 146.208 352.07 145.296C353.798 144.336 354.974 143.088 355.598 141.552L363.878 143.856C362.966 145.776 361.646 147.48 359.918 148.968C358.238 150.456 356.246 151.632 353.942 152.496C351.638 153.312 349.094 153.72 346.31 153.72ZM336.446 131.112H356.174C355.982 129.192 355.43 127.536 354.518 126.144C353.654 124.704 352.502 123.6 351.062 122.832C349.622 122.016 348.014 121.608 346.238 121.608C344.51 121.608 342.926 122.016 341.486 122.832C340.094 123.6 338.942 124.704 338.03 126.144C337.166 127.536 336.638 129.192 336.446 131.112ZM371.843 100.44H381.491V140.904C381.491 142.632 381.779 143.808 382.355 144.432C382.931 145.008 383.723 145.296 384.731 145.296C385.499 145.296 386.291 145.2 387.107 145.008C387.923 144.816 388.643 144.576 389.267 144.288L390.563 151.632C389.267 152.256 387.755 152.736 386.027 153.072C384.299 153.408 382.739 153.576 381.347 153.576C378.323 153.576 375.971 152.784 374.291 151.2C372.659 149.568 371.843 147.264 371.843 144.288V100.44ZM394.695 100.44H404.343V140.904C404.343 142.632 404.631 143.808 405.207 144.432C405.783 145.008 406.575 145.296 407.583 145.296C408.351 145.296 409.143 145.2 409.959 145.008C410.775 144.816 411.495 144.576 412.119 144.288L413.415 151.632C412.119 152.256 410.607 152.736 408.879 153.072C407.151 153.408 405.591 153.576 404.199 153.576C401.175 153.576 398.823 152.784 397.143 151.2C395.511 149.568 394.695 147.264 394.695 144.288V100.44ZM417.619 153V115.272H427.267V153H417.619ZM417.619 110.016V100.44H427.267V110.016H417.619ZM450.73 153.216C448.234 153.216 445.93 152.736 443.818 151.776C441.754 150.768 439.954 149.376 438.418 147.6C436.93 145.824 435.778 143.784 434.962 141.48C434.146 139.176 433.738 136.728 433.738 134.136C433.738 131.4 434.17 128.856 435.034 126.504C435.898 124.152 437.098 122.088 438.634 120.312C440.218 118.488 442.066 117.096 444.178 116.136C446.338 115.128 448.714 114.624 451.306 114.624C454.234 114.624 456.802 115.296 459.01 116.64C461.218 117.936 463.042 119.688 464.482 121.896V115.272H472.906V151.2C472.906 154.944 471.994 158.136 470.17 160.776C468.394 163.464 465.922 165.504 462.754 166.896C459.586 168.336 455.986 169.056 451.954 169.056C447.874 169.056 444.418 168.36 441.586 166.968C438.754 165.624 436.33 163.704 434.314 161.208L439.57 156.096C441.01 157.872 442.81 159.264 444.97 160.272C447.178 161.28 449.506 161.784 451.954 161.784C454.018 161.784 455.89 161.4 457.57 160.632C459.298 159.912 460.666 158.76 461.674 157.176C462.73 155.64 463.258 153.648 463.258 151.2V146.448C462.01 148.608 460.234 150.288 457.93 151.488C455.674 152.64 453.274 153.216 450.73 153.216ZM453.97 145.512C455.026 145.512 456.034 145.344 456.994 145.008C457.954 144.672 458.842 144.216 459.658 143.64C460.474 143.064 461.194 142.392 461.818 141.624C462.442 140.808 462.922 139.992 463.258 139.176V130.176C462.682 128.688 461.866 127.392 460.81 126.288C459.802 125.184 458.65 124.344 457.354 123.768C456.106 123.144 454.786 122.832 453.394 122.832C451.906 122.832 450.562 123.144 449.362 123.768C448.162 124.392 447.13 125.28 446.266 126.432C445.402 127.536 444.73 128.784 444.25 130.176C443.818 131.52 443.602 132.936 443.602 134.424C443.602 135.96 443.866 137.4 444.394 138.744C444.922 140.088 445.642 141.264 446.554 142.272C447.514 143.28 448.618 144.072 449.866 144.648C451.162 145.224 452.53 145.512 453.97 145.512ZM499.099 153.72C496.075 153.72 493.339 153.216 490.891 152.208C488.443 151.152 486.355 149.736 484.627 147.96C482.899 146.136 481.555 144.072 480.595 141.768C479.683 139.416 479.227 136.944 479.227 134.352C479.227 130.752 480.019 127.464 481.603 124.488C483.235 121.512 485.539 119.136 488.515 117.36C491.539 115.536 495.091 114.624 499.171 114.624C503.299 114.624 506.827 115.536 509.755 117.36C512.683 119.136 514.915 121.512 516.451 124.488C518.035 127.416 518.827 130.584 518.827 133.992C518.827 134.568 518.803 135.168 518.755 135.792C518.707 136.368 518.659 136.848 518.611 137.232H489.451C489.643 139.152 490.195 140.832 491.107 142.272C492.067 143.712 493.267 144.816 494.707 145.584C496.195 146.304 497.779 146.664 499.459 146.664C501.379 146.664 503.179 146.208 504.859 145.296C506.587 144.336 507.763 143.088 508.387 141.552L516.667 143.856C515.755 145.776 514.435 147.48 512.707 148.968C511.027 150.456 509.035 151.632 506.731 152.496C504.427 153.312 501.883 153.72 499.099 153.72ZM489.235 131.112H508.963C508.771 129.192 508.219 127.536 507.307 126.144C506.443 124.704 505.291 123.6 503.851 122.832C502.411 122.016 500.803 121.608 499.027 121.608C497.299 121.608 495.715 122.016 494.275 122.832C492.883 123.6 491.731 124.704 490.819 126.144C489.955 127.536 489.427 129.192 489.235 131.112ZM559.769 153H550.121V131.832C550.121 128.808 549.593 126.6 548.537 125.208C547.481 123.816 546.017 123.12 544.145 123.12C542.849 123.12 541.529 123.456 540.185 124.128C538.889 124.8 537.713 125.736 536.657 126.936C535.601 128.088 534.833 129.432 534.353 130.968V153H524.705V115.272H533.417V122.256C534.377 120.624 535.601 119.256 537.089 118.152C538.577 117 540.281 116.136 542.201 115.56C544.169 114.936 546.233 114.624 548.393 114.624C550.745 114.624 552.665 115.056 554.153 115.92C555.689 116.736 556.841 117.864 557.609 119.304C558.425 120.696 558.977 122.28 559.265 124.056C559.601 125.832 559.769 127.632 559.769 129.456V153ZM585.726 153.72C582.654 153.72 579.894 153.216 577.446 152.208C574.998 151.152 572.91 149.712 571.182 147.888C569.454 146.016 568.11 143.904 567.15 141.552C566.238 139.2 565.782 136.728 565.782 134.136C565.782 130.584 566.574 127.344 568.158 124.416C569.79 121.44 572.094 119.064 575.07 117.288C578.046 115.512 581.574 114.624 585.654 114.624C589.734 114.624 593.238 115.512 596.166 117.288C599.094 119.064 601.278 121.392 602.718 124.272L593.286 127.152C592.47 125.76 591.39 124.704 590.046 123.984C588.702 123.216 587.214 122.832 585.582 122.832C583.758 122.832 582.078 123.312 580.542 124.272C579.054 125.184 577.878 126.504 577.014 128.232C576.15 129.912 575.718 131.88 575.718 134.136C575.718 136.344 576.15 138.312 577.014 140.04C577.926 141.72 579.126 143.064 580.614 144.072C582.102 145.032 583.758 145.512 585.582 145.512C586.734 145.512 587.814 145.32 588.822 144.936C589.878 144.552 590.814 144.024 591.63 143.352C592.446 142.68 593.046 141.912 593.43 141.048L602.862 143.928C601.998 145.8 600.726 147.48 599.046 148.968C597.414 150.456 595.47 151.632 593.214 152.496C591.006 153.312 588.51 153.72 585.726 153.72ZM625.943 153.72C622.919 153.72 620.183 153.216 617.735 152.208C615.287 151.152 613.199 149.736 611.471 147.96C609.743 146.136 608.399 144.072 607.439 141.768C606.527 139.416 606.071 136.944 606.071 134.352C606.071 130.752 606.863 127.464 608.447 124.488C610.079 121.512 612.383 119.136 615.359 117.36C618.383 115.536 621.935 114.624 626.015 114.624C630.143 114.624 633.671 115.536 636.599 117.36C639.527 119.136 641.759 121.512 643.295 124.488C644.879 127.416 645.671 130.584 645.671 133.992C645.671 134.568 645.647 135.168 645.599 135.792C645.551 136.368 645.503 136.848 645.455 137.232H616.295C616.487 139.152 617.039 140.832 617.951 142.272C618.911 143.712 620.111 144.816 621.551 145.584C623.039 146.304 624.623 146.664 626.303 146.664C628.223 146.664 630.023 146.208 631.703 145.296C633.431 144.336 634.607 143.088 635.231 141.552L643.511 143.856C642.599 145.776 641.279 147.48 639.551 148.968C637.871 150.456 635.879 151.632 633.575 152.496C631.271 153.312 628.727 153.72 625.943 153.72ZM616.079 131.112H635.807C635.615 129.192 635.063 127.536 634.151 126.144C633.287 124.704 632.135 123.6 630.695 122.832C629.255 122.016 627.647 121.608 625.871 121.608C624.143 121.608 622.559 122.016 621.119 122.832C619.727 123.6 618.575 124.704 617.663 126.144C616.799 127.536 616.271 129.192 616.079 131.112Z" fill="url(#paint1_linear_58_6126)"/>
<defs>
<linearGradient id="paint0_linear_58_6126" x1="134.163" y1="181.286" x2="-22.5823" y2="-74.213" gradientUnits="userSpaceOnUse">
<stop stop-color="white"/>
<stop offset="1"/>
</linearGradient>
<linearGradient id="paint1_linear_58_6126" x1="755.783" y1="147.38" x2="57.3008" y2="-117.053" gradientUnits="userSpaceOnUse">
<stop stop-color="#8C45FF"/>
<stop offset="1" stop-color="white"/>
</linearGradient>
</defs>
</svg>
