<svg width="558" height="69" viewBox="0 0 558 69" fill="none" xmlns="http://www.w3.org/2000/svg">
<rect x="0.5" y="0.5" width="557" height="68" rx="23.5" stroke="white" stroke-opacity="0.15"/>
<path d="M51.2784 40.5V28.8636H53.0341V33.9205H58.8352V28.8636H60.5966V40.5H58.8352V35.4261H53.0341V40.5H51.2784ZM66.6932 40.6761C65.875 40.6761 65.161 40.4886 64.5511 40.1136C63.9413 39.7386 63.4678 39.214 63.1307 38.5398C62.7936 37.8655 62.625 37.0777 62.625 36.1761C62.625 35.2708 62.7936 34.4792 63.1307 33.8011C63.4678 33.1231 63.9413 32.5966 64.5511 32.2216C65.161 31.8466 65.875 31.6591 66.6932 31.6591C67.5114 31.6591 68.2254 31.8466 68.8352 32.2216C69.4451 32.5966 69.9186 33.1231 70.2557 33.8011C70.5928 34.4792 70.7614 35.2708 70.7614 36.1761C70.7614 37.0777 70.5928 37.8655 70.2557 38.5398C69.9186 39.214 69.4451 39.7386 68.8352 40.1136C68.2254 40.4886 67.5114 40.6761 66.6932 40.6761ZM66.6989 39.25C67.2292 39.25 67.6686 39.1098 68.017 38.8295C68.3655 38.5492 68.6231 38.1761 68.7898 37.7102C68.9602 37.2443 69.0455 36.7311 69.0455 36.1705C69.0455 35.6136 68.9602 35.1023 68.7898 34.6364C68.6231 34.1667 68.3655 33.7898 68.017 33.5057C67.6686 33.2216 67.2292 33.0795 66.6989 33.0795C66.1648 33.0795 65.7216 33.2216 65.3693 33.5057C65.0208 33.7898 64.7614 34.1667 64.5909 34.6364C64.4242 35.1023 64.3409 35.6136 64.3409 36.1705C64.3409 36.7311 64.4242 37.2443 64.5909 37.7102C64.7614 38.1761 65.0208 38.5492 65.3693 38.8295C65.7216 39.1098 66.1648 39.25 66.6989 39.25ZM72.6577 40.5V31.7727H74.2884V33.1932H74.3963C74.5781 32.7121 74.8755 32.3371 75.2884 32.0682C75.7012 31.7955 76.1955 31.6591 76.7713 31.6591C77.3546 31.6591 77.8433 31.7955 78.2372 32.0682C78.6349 32.3409 78.9285 32.7159 79.1179 33.1932H79.2088C79.4171 32.7273 79.7486 32.3561 80.2031 32.0795C80.6577 31.7992 81.1993 31.6591 81.8281 31.6591C82.6198 31.6591 83.2656 31.9072 83.7656 32.4034C84.2694 32.8996 84.5213 33.6477 84.5213 34.6477V40.5H82.8224V34.8068C82.8224 34.2159 82.6615 33.7879 82.3395 33.5227C82.0175 33.2576 81.633 33.125 81.1861 33.125C80.633 33.125 80.2031 33.2955 79.8963 33.6364C79.5895 33.9735 79.4361 34.4072 79.4361 34.9375V40.5H77.7429V34.6989C77.7429 34.2254 77.5952 33.8447 77.2997 33.5568C77.0043 33.2689 76.6198 33.125 76.1463 33.125C75.8243 33.125 75.527 33.2102 75.2543 33.3807C74.9853 33.5473 74.7675 33.7803 74.6009 34.0795C74.438 34.3788 74.3565 34.7254 74.3565 35.1193V40.5H72.6577ZM90.5597 40.6761C89.6998 40.6761 88.9593 40.4924 88.3381 40.125C87.7206 39.7538 87.2434 39.233 86.9062 38.5625C86.5729 37.8883 86.4062 37.0985 86.4062 36.1932C86.4062 35.2992 86.5729 34.5114 86.9062 33.8295C87.2434 33.1477 87.7131 32.6155 88.3153 32.233C88.9214 31.8504 89.6297 31.6591 90.4403 31.6591C90.9328 31.6591 91.41 31.7405 91.8722 31.9034C92.3343 32.0663 92.7491 32.322 93.1165 32.6705C93.4839 33.0189 93.7737 33.4716 93.9858 34.0284C94.1979 34.5814 94.304 35.2538 94.304 36.0455V36.6477H87.3665V35.375H92.6392C92.6392 34.928 92.5483 34.5322 92.3665 34.1875C92.1847 33.839 91.929 33.5644 91.5994 33.3636C91.2737 33.1629 90.8911 33.0625 90.4517 33.0625C89.9744 33.0625 89.5578 33.1799 89.2017 33.4148C88.8494 33.6458 88.5767 33.9489 88.3835 34.3239C88.1941 34.6951 88.0994 35.0985 88.0994 35.5341V36.5284C88.0994 37.1117 88.2017 37.608 88.4062 38.017C88.6146 38.4261 88.9044 38.7386 89.2756 38.9545C89.6468 39.1667 90.0805 39.2727 90.5767 39.2727C90.8987 39.2727 91.1922 39.2273 91.4574 39.1364C91.7225 39.0417 91.9517 38.9015 92.1449 38.7159C92.3381 38.5303 92.4858 38.3011 92.5881 38.0284L94.196 38.3182C94.0672 38.7917 93.8362 39.2064 93.5028 39.5625C93.1733 39.9148 92.7585 40.1894 92.2585 40.3864C91.7623 40.5795 91.196 40.6761 90.5597 40.6761Z" fill="white"/>
<path d="M142.261 40.5H140.398L144.585 28.8636H146.614L150.801 40.5H148.938L145.648 30.9773H145.557L142.261 40.5ZM142.574 35.9432H148.619V37.4205H142.574V35.9432ZM152.482 40.5V28.8636H154.18V33.1875H154.283C154.381 33.0057 154.523 32.7955 154.709 32.5568C154.894 32.3182 155.152 32.1098 155.482 31.9318C155.811 31.75 156.247 31.6591 156.788 31.6591C157.493 31.6591 158.122 31.8371 158.675 32.1932C159.228 32.5492 159.661 33.0625 159.976 33.733C160.294 34.4034 160.453 35.2102 160.453 36.1534C160.453 37.0966 160.296 37.9053 159.982 38.5795C159.667 39.25 159.235 39.767 158.686 40.1307C158.137 40.4905 157.51 40.6705 156.805 40.6705C156.275 40.6705 155.841 40.5814 155.504 40.4034C155.171 40.2254 154.91 40.017 154.72 39.7784C154.531 39.5398 154.385 39.3277 154.283 39.142H154.141V40.5H152.482ZM154.146 36.1364C154.146 36.75 154.235 37.2879 154.413 37.75C154.591 38.2121 154.849 38.5739 155.186 38.8352C155.523 39.0928 155.936 39.2216 156.425 39.2216C156.932 39.2216 157.357 39.0871 157.697 38.8182C158.038 38.5455 158.296 38.1761 158.47 37.7102C158.648 37.2443 158.737 36.7197 158.737 36.1364C158.737 35.5606 158.65 35.0436 158.476 34.5852C158.305 34.1269 158.048 33.7652 157.703 33.5C157.362 33.2348 156.936 33.1023 156.425 33.1023C155.932 33.1023 155.516 33.2292 155.175 33.483C154.838 33.7367 154.582 34.0909 154.408 34.5455C154.233 35 154.146 35.5303 154.146 36.1364ZM166.037 40.6761C165.219 40.6761 164.505 40.4886 163.895 40.1136C163.285 39.7386 162.812 39.214 162.474 38.5398C162.137 37.8655 161.969 37.0777 161.969 36.1761C161.969 35.2708 162.137 34.4792 162.474 33.8011C162.812 33.1231 163.285 32.5966 163.895 32.2216C164.505 31.8466 165.219 31.6591 166.037 31.6591C166.855 31.6591 167.569 31.8466 168.179 32.2216C168.789 32.5966 169.262 33.1231 169.599 33.8011C169.937 34.4792 170.105 35.2708 170.105 36.1761C170.105 37.0777 169.937 37.8655 169.599 38.5398C169.262 39.214 168.789 39.7386 168.179 40.1136C167.569 40.4886 166.855 40.6761 166.037 40.6761ZM166.043 39.25C166.573 39.25 167.012 39.1098 167.361 38.8295C167.709 38.5492 167.967 38.1761 168.134 37.7102C168.304 37.2443 168.389 36.7311 168.389 36.1705C168.389 35.6136 168.304 35.1023 168.134 34.6364C167.967 34.1667 167.709 33.7898 167.361 33.5057C167.012 33.2216 166.573 33.0795 166.043 33.0795C165.509 33.0795 165.065 33.2216 164.713 33.5057C164.365 33.7898 164.105 34.1667 163.935 34.6364C163.768 35.1023 163.685 35.6136 163.685 36.1705C163.685 36.7311 163.768 37.2443 163.935 37.7102C164.105 38.1761 164.365 38.5492 164.713 38.8295C165.065 39.1098 165.509 39.25 166.043 39.25ZM177.53 36.8807V31.7727H179.234V40.5H177.564V38.9886H177.473C177.272 39.4545 176.95 39.8428 176.507 40.1534C176.068 40.4602 175.52 40.6136 174.865 40.6136C174.304 40.6136 173.808 40.4905 173.376 40.2443C172.948 39.9943 172.611 39.625 172.365 39.1364C172.123 38.6477 172.001 38.0436 172.001 37.3239V31.7727H173.7V37.1193C173.7 37.714 173.865 38.1875 174.195 38.5398C174.524 38.892 174.952 39.0682 175.479 39.0682C175.797 39.0682 176.113 38.9886 176.428 38.8295C176.746 38.6705 177.009 38.4299 177.217 38.108C177.429 37.786 177.534 37.3769 177.53 36.8807ZM185.591 31.7727V33.1364H180.824V31.7727H185.591ZM182.102 29.6818H183.801V37.9375C183.801 38.267 183.85 38.5152 183.949 38.6818C184.047 38.8447 184.174 38.9564 184.33 39.017C184.489 39.0739 184.661 39.1023 184.847 39.1023C184.983 39.1023 185.102 39.0928 185.205 39.0739C185.307 39.0549 185.386 39.0398 185.443 39.0284L185.75 40.4318C185.652 40.4697 185.511 40.5076 185.33 40.5455C185.148 40.5871 184.92 40.6098 184.648 40.6136C184.201 40.6212 183.784 40.5417 183.398 40.375C183.011 40.2083 182.699 39.9508 182.46 39.6023C182.222 39.2538 182.102 38.8163 182.102 38.2898V29.6818Z" fill="white"/>
<path d="M238.625 31.9205C238.564 31.3826 238.314 30.9659 237.875 30.6705C237.436 30.3712 236.883 30.2216 236.216 30.2216C235.739 30.2216 235.326 30.2973 234.977 30.4489C234.629 30.5966 234.358 30.8011 234.165 31.0625C233.975 31.3201 233.881 31.6136 233.881 31.9432C233.881 32.2197 233.945 32.4583 234.074 32.6591C234.206 32.8598 234.379 33.0284 234.591 33.1648C234.807 33.2973 235.038 33.4091 235.284 33.5C235.53 33.5871 235.767 33.6591 235.994 33.7159L237.131 34.0114C237.502 34.1023 237.883 34.2254 238.273 34.3807C238.663 34.536 239.025 34.7405 239.358 34.9943C239.691 35.2481 239.96 35.5625 240.165 35.9375C240.373 36.3125 240.477 36.7614 240.477 37.2841C240.477 37.9432 240.307 38.5284 239.966 39.0398C239.629 39.5511 239.138 39.9545 238.494 40.25C237.854 40.5455 237.08 40.6932 236.17 40.6932C235.299 40.6932 234.545 40.5549 233.909 40.2784C233.273 40.0019 232.775 39.6098 232.415 39.1023C232.055 38.5909 231.856 37.9848 231.818 37.2841H233.58C233.614 37.7045 233.75 38.0549 233.989 38.3352C234.231 38.6117 234.54 38.8182 234.915 38.9545C235.294 39.0871 235.708 39.1534 236.159 39.1534C236.655 39.1534 237.097 39.0758 237.483 38.9205C237.873 38.7614 238.18 38.5417 238.403 38.2614C238.627 37.9773 238.739 37.6458 238.739 37.267C238.739 36.9223 238.64 36.6402 238.443 36.4205C238.25 36.2008 237.987 36.0189 237.653 35.875C237.324 35.7311 236.951 35.6042 236.534 35.4943L235.159 35.1193C234.227 34.8655 233.489 34.4924 232.943 34C232.402 33.5076 232.131 32.8561 232.131 32.0455C232.131 31.375 232.313 30.7898 232.676 30.2898C233.04 29.7898 233.532 29.4015 234.153 29.125C234.775 28.8447 235.475 28.7045 236.256 28.7045C237.044 28.7045 237.739 28.8428 238.341 29.1193C238.947 29.3958 239.424 29.7765 239.773 30.2614C240.121 30.7424 240.303 31.2955 240.318 31.9205H238.625ZM246.2 40.6761C245.34 40.6761 244.6 40.4924 243.979 40.125C243.361 39.7538 242.884 39.233 242.547 38.5625C242.214 37.8883 242.047 37.0985 242.047 36.1932C242.047 35.2992 242.214 34.5114 242.547 33.8295C242.884 33.1477 243.354 32.6155 243.956 32.233C244.562 31.8504 245.27 31.6591 246.081 31.6591C246.573 31.6591 247.051 31.7405 247.513 31.9034C247.975 32.0663 248.39 32.322 248.757 32.6705C249.125 33.0189 249.414 33.4716 249.626 34.0284C249.839 34.5814 249.945 35.2538 249.945 36.0455V36.6477H243.007V35.375H248.28C248.28 34.928 248.189 34.5322 248.007 34.1875C247.825 33.839 247.57 33.5644 247.24 33.3636C246.914 33.1629 246.532 33.0625 246.092 33.0625C245.615 33.0625 245.198 33.1799 244.842 33.4148C244.49 33.6458 244.217 33.9489 244.024 34.3239C243.835 34.6951 243.74 35.0985 243.74 35.5341V36.5284C243.74 37.1117 243.842 37.608 244.047 38.017C244.255 38.4261 244.545 38.7386 244.916 38.9545C245.287 39.1667 245.721 39.2727 246.217 39.2727C246.539 39.2727 246.833 39.2273 247.098 39.1364C247.363 39.0417 247.592 38.9015 247.786 38.7159C247.979 38.5303 248.126 38.3011 248.229 38.0284L249.837 38.3182C249.708 38.7917 249.477 39.2064 249.143 39.5625C248.814 39.9148 248.399 40.1894 247.899 40.3864C247.403 40.5795 246.837 40.6761 246.2 40.6761ZM251.83 40.5V31.7727H253.472V33.1591H253.562C253.722 32.6894 254.002 32.3201 254.403 32.0511C254.809 31.7784 255.267 31.642 255.778 31.642C255.884 31.642 256.009 31.6458 256.153 31.6534C256.301 31.661 256.417 31.6705 256.5 31.6818V33.3068C256.432 33.2879 256.311 33.267 256.136 33.2443C255.962 33.2178 255.788 33.2045 255.614 33.2045C255.212 33.2045 254.854 33.2898 254.54 33.4602C254.229 33.6269 253.983 33.8598 253.801 34.1591C253.619 34.4545 253.528 34.7917 253.528 35.1705V40.5H251.83ZM265.702 31.7727L262.537 40.5H260.719L257.548 31.7727H259.372L261.582 38.4886H261.673L263.878 31.7727H265.702ZM267.298 40.5V31.7727H268.997V40.5H267.298ZM268.156 30.4261C267.861 30.4261 267.607 30.3277 267.395 30.1307C267.187 29.9299 267.082 29.6913 267.082 29.4148C267.082 29.1345 267.187 28.8958 267.395 28.6989C267.607 28.4981 267.861 28.3977 268.156 28.3977C268.452 28.3977 268.704 28.4981 268.912 28.6989C269.124 28.8958 269.23 29.1345 269.23 29.4148C269.23 29.6913 269.124 29.9299 268.912 30.1307C268.704 30.3277 268.452 30.4261 268.156 30.4261ZM274.959 40.6761C274.114 40.6761 273.387 40.4848 272.777 40.1023C272.171 39.7159 271.705 39.1837 271.379 38.5057C271.054 37.8277 270.891 37.0511 270.891 36.1761C270.891 35.2898 271.057 34.5076 271.391 33.8295C271.724 33.1477 272.194 32.6155 272.8 32.233C273.406 31.8504 274.12 31.6591 274.942 31.6591C275.605 31.6591 276.196 31.7822 276.714 32.0284C277.233 32.2708 277.652 32.6117 277.97 33.0511C278.292 33.4905 278.483 34.0038 278.544 34.5909H276.891C276.8 34.1818 276.591 33.8295 276.266 33.5341C275.944 33.2386 275.512 33.0909 274.97 33.0909C274.497 33.0909 274.082 33.2159 273.726 33.4659C273.374 33.7121 273.099 34.0644 272.902 34.5227C272.705 34.9773 272.607 35.5152 272.607 36.1364C272.607 36.7727 272.703 37.322 272.896 37.7841C273.089 38.2462 273.362 38.6042 273.714 38.858C274.071 39.1117 274.489 39.2386 274.97 39.2386C275.292 39.2386 275.584 39.1799 275.845 39.0625C276.11 38.9413 276.332 38.7689 276.51 38.5455C276.692 38.322 276.819 38.053 276.891 37.7386H278.544C278.483 38.303 278.3 38.8068 277.993 39.25C277.686 39.6932 277.275 40.0417 276.76 40.2955C276.249 40.5492 275.648 40.6761 274.959 40.6761ZM284.122 40.6761C283.262 40.6761 282.522 40.4924 281.901 40.125C281.283 39.7538 280.806 39.233 280.469 38.5625C280.135 37.8883 279.969 37.0985 279.969 36.1932C279.969 35.2992 280.135 34.5114 280.469 33.8295C280.806 33.1477 281.276 32.6155 281.878 32.233C282.484 31.8504 283.192 31.6591 284.003 31.6591C284.495 31.6591 284.973 31.7405 285.435 31.9034C285.897 32.0663 286.312 32.322 286.679 32.6705C287.046 33.0189 287.336 33.4716 287.548 34.0284C287.76 34.5814 287.866 35.2538 287.866 36.0455V36.6477H280.929V35.375H286.202C286.202 34.928 286.111 34.5322 285.929 34.1875C285.747 33.839 285.491 33.5644 285.162 33.3636C284.836 33.1629 284.454 33.0625 284.014 33.0625C283.537 33.0625 283.12 33.1799 282.764 33.4148C282.412 33.6458 282.139 33.9489 281.946 34.3239C281.757 34.6951 281.662 35.0985 281.662 35.5341V36.5284C281.662 37.1117 281.764 37.608 281.969 38.017C282.177 38.4261 282.467 38.7386 282.838 38.9545C283.209 39.1667 283.643 39.2727 284.139 39.2727C284.461 39.2727 284.755 39.2273 285.02 39.1364C285.285 39.0417 285.514 38.9015 285.707 38.7159C285.901 38.5303 286.048 38.3011 286.151 38.0284L287.759 38.3182C287.63 38.7917 287.399 39.2064 287.065 39.5625C286.736 39.9148 286.321 40.1894 285.821 40.3864C285.325 40.5795 284.759 40.6761 284.122 40.6761ZM296.291 33.9034L294.751 34.1761C294.687 33.9792 294.585 33.7917 294.445 33.6136C294.308 33.4356 294.123 33.2898 293.888 33.1761C293.653 33.0625 293.359 33.0057 293.007 33.0057C292.526 33.0057 292.125 33.1136 291.803 33.3295C291.481 33.5417 291.32 33.8163 291.32 34.1534C291.32 34.4451 291.428 34.6799 291.643 34.858C291.859 35.036 292.208 35.1818 292.689 35.2955L294.075 35.6136C294.878 35.7992 295.477 36.0852 295.871 36.4716C296.265 36.858 296.462 37.3598 296.462 37.9773C296.462 38.5 296.31 38.9659 296.007 39.375C295.708 39.7803 295.289 40.0985 294.751 40.3295C294.217 40.5606 293.598 40.6761 292.893 40.6761C291.916 40.6761 291.119 40.4678 290.501 40.0511C289.884 39.6307 289.505 39.0341 289.365 38.2614L291.007 38.0114C291.109 38.4394 291.32 38.7633 291.638 38.983C291.956 39.1989 292.371 39.3068 292.882 39.3068C293.439 39.3068 293.884 39.1913 294.217 38.9602C294.551 38.7254 294.717 38.4394 294.717 38.1023C294.717 37.8295 294.615 37.6004 294.411 37.4148C294.21 37.2292 293.901 37.089 293.484 36.9943L292.007 36.6705C291.193 36.4848 290.59 36.1894 290.2 35.7841C289.814 35.3788 289.621 34.8655 289.621 34.2443C289.621 33.7292 289.765 33.2784 290.053 32.892C290.34 32.5057 290.738 32.2045 291.246 31.9886C291.753 31.7689 292.335 31.6591 292.99 31.6591C293.933 31.6591 294.676 31.8636 295.217 32.2727C295.759 32.678 296.117 33.2216 296.291 33.9034Z" fill="white"/>
<path d="M352.943 32.6477H351.17C351.102 32.2689 350.975 31.9356 350.79 31.6477C350.604 31.3598 350.377 31.1155 350.108 30.9148C349.839 30.714 349.538 30.5625 349.205 30.4602C348.875 30.358 348.525 30.3068 348.153 30.3068C347.483 30.3068 346.883 30.4754 346.352 30.8125C345.826 31.1496 345.409 31.6439 345.102 32.2955C344.799 32.947 344.648 33.7424 344.648 34.6818C344.648 35.6288 344.799 36.428 345.102 37.0795C345.409 37.7311 345.828 38.2235 346.358 38.5568C346.888 38.8902 347.485 39.0568 348.148 39.0568C348.515 39.0568 348.864 39.0076 349.193 38.9091C349.527 38.8068 349.828 38.6572 350.097 38.4602C350.366 38.2633 350.593 38.0227 350.778 37.7386C350.968 37.4508 351.098 37.1212 351.17 36.75L352.943 36.7557C352.848 37.3277 352.665 37.8542 352.392 38.3352C352.123 38.8125 351.777 39.2254 351.352 39.5739C350.932 39.9186 350.451 40.1856 349.909 40.375C349.367 40.5644 348.777 40.6591 348.136 40.6591C347.129 40.6591 346.231 40.4205 345.443 39.9432C344.655 39.4621 344.034 38.7746 343.58 37.8807C343.129 36.9867 342.903 35.9205 342.903 34.6818C342.903 33.4394 343.131 32.3731 343.585 31.483C344.04 30.589 344.661 29.9034 345.449 29.4261C346.237 28.9451 347.133 28.7045 348.136 28.7045C348.754 28.7045 349.33 28.7936 349.864 28.9716C350.402 29.1458 350.884 29.4034 351.312 29.7443C351.741 30.0814 352.095 30.4943 352.375 30.983C352.655 31.4678 352.845 32.0227 352.943 32.6477ZM357.447 40.6932C356.894 40.6932 356.394 40.5909 355.947 40.3864C355.5 40.178 355.146 39.8769 354.885 39.483C354.627 39.089 354.499 38.6061 354.499 38.0341C354.499 37.5417 354.593 37.1364 354.783 36.8182C354.972 36.5 355.228 36.2481 355.55 36.0625C355.872 35.8769 356.232 35.7367 356.629 35.642C357.027 35.5473 357.432 35.4754 357.845 35.4261C358.368 35.3655 358.792 35.3163 359.118 35.2784C359.444 35.2367 359.68 35.1705 359.828 35.0795C359.976 34.9886 360.05 34.8409 360.05 34.6364V34.5966C360.05 34.1004 359.91 33.7159 359.629 33.4432C359.353 33.1705 358.94 33.0341 358.391 33.0341C357.819 33.0341 357.368 33.161 357.038 33.4148C356.713 33.6648 356.487 33.9432 356.362 34.25L354.766 33.8864C354.955 33.3561 355.232 32.928 355.595 32.6023C355.963 32.2727 356.385 32.0341 356.862 31.8864C357.339 31.7348 357.841 31.6591 358.368 31.6591C358.716 31.6591 359.086 31.7008 359.476 31.7841C359.87 31.8636 360.237 32.0114 360.578 32.2273C360.923 32.4432 361.205 32.7519 361.425 33.1534C361.644 33.5511 361.754 34.0682 361.754 34.7045V40.5H360.095V39.3068H360.027C359.917 39.5265 359.752 39.7424 359.533 39.9545C359.313 40.1667 359.031 40.3428 358.686 40.483C358.341 40.6231 357.929 40.6932 357.447 40.6932ZM357.817 39.3295C358.286 39.3295 358.688 39.2367 359.021 39.0511C359.358 38.8655 359.614 38.6231 359.788 38.3239C359.966 38.0208 360.055 37.697 360.055 37.3523V36.2273C359.995 36.2879 359.877 36.3447 359.703 36.3977C359.533 36.447 359.338 36.4905 359.118 36.5284C358.898 36.5625 358.684 36.5947 358.476 36.625C358.268 36.6515 358.093 36.6742 357.953 36.6932C357.624 36.7348 357.322 36.8049 357.05 36.9034C356.781 37.0019 356.565 37.1439 356.402 37.3295C356.243 37.5114 356.163 37.7538 356.163 38.0568C356.163 38.4773 356.319 38.7955 356.629 39.0114C356.94 39.2235 357.336 39.3295 357.817 39.3295ZM364.017 40.5V31.7727H365.659V33.1591H365.75C365.909 32.6894 366.189 32.3201 366.591 32.0511C366.996 31.7784 367.455 31.642 367.966 31.642C368.072 31.642 368.197 31.6458 368.341 31.6534C368.489 31.661 368.604 31.6705 368.688 31.6818V33.3068C368.619 33.2879 368.498 33.267 368.324 33.2443C368.15 33.2178 367.975 33.2045 367.801 33.2045C367.4 33.2045 367.042 33.2898 366.727 33.4602C366.417 33.6269 366.17 33.8598 365.989 34.1591C365.807 34.4545 365.716 34.7917 365.716 35.1705V40.5H364.017ZM373.607 40.6761C372.747 40.6761 372.006 40.4924 371.385 40.125C370.768 39.7538 370.29 39.233 369.953 38.5625C369.62 37.8883 369.453 37.0985 369.453 36.1932C369.453 35.2992 369.62 34.5114 369.953 33.8295C370.29 33.1477 370.76 32.6155 371.362 32.233C371.968 31.8504 372.677 31.6591 373.487 31.6591C373.98 31.6591 374.457 31.7405 374.919 31.9034C375.381 32.0663 375.796 32.322 376.163 32.6705C376.531 33.0189 376.821 33.4716 377.033 34.0284C377.245 34.5814 377.351 35.2538 377.351 36.0455V36.6477H370.413V35.375H375.686C375.686 34.928 375.595 34.5322 375.413 34.1875C375.232 33.839 374.976 33.5644 374.646 33.3636C374.321 33.1629 373.938 33.0625 373.499 33.0625C373.021 33.0625 372.605 33.1799 372.249 33.4148C371.896 33.6458 371.624 33.9489 371.43 34.3239C371.241 34.6951 371.146 35.0985 371.146 35.5341V36.5284C371.146 37.1117 371.249 37.608 371.453 38.017C371.661 38.4261 371.951 38.7386 372.322 38.9545C372.694 39.1667 373.127 39.2727 373.624 39.2727C373.946 39.2727 374.239 39.2273 374.504 39.1364C374.769 39.0417 374.999 38.9015 375.192 38.7159C375.385 38.5303 375.533 38.3011 375.635 38.0284L377.243 38.3182C377.114 38.7917 376.883 39.2064 376.55 39.5625C376.22 39.9148 375.805 40.1894 375.305 40.3864C374.809 40.5795 374.243 40.6761 373.607 40.6761ZM382.997 40.6761C382.137 40.6761 381.397 40.4924 380.776 40.125C380.158 39.7538 379.681 39.233 379.344 38.5625C379.01 37.8883 378.844 37.0985 378.844 36.1932C378.844 35.2992 379.01 34.5114 379.344 33.8295C379.681 33.1477 380.151 32.6155 380.753 32.233C381.359 31.8504 382.067 31.6591 382.878 31.6591C383.37 31.6591 383.848 31.7405 384.31 31.9034C384.772 32.0663 385.187 32.322 385.554 32.6705C385.921 33.0189 386.211 33.4716 386.423 34.0284C386.635 34.5814 386.741 35.2538 386.741 36.0455V36.6477H379.804V35.375H385.077C385.077 34.928 384.986 34.5322 384.804 34.1875C384.622 33.839 384.366 33.5644 384.037 33.3636C383.711 33.1629 383.329 33.0625 382.889 33.0625C382.412 33.0625 381.995 33.1799 381.639 33.4148C381.287 33.6458 381.014 33.9489 380.821 34.3239C380.632 34.6951 380.537 35.0985 380.537 35.5341V36.5284C380.537 37.1117 380.639 37.608 380.844 38.017C381.052 38.4261 381.342 38.7386 381.713 38.9545C382.084 39.1667 382.518 39.2727 383.014 39.2727C383.336 39.2727 383.63 39.2273 383.895 39.1364C384.16 39.0417 384.389 38.9015 384.582 38.7159C384.776 38.5303 384.923 38.3011 385.026 38.0284L386.634 38.3182C386.505 38.7917 386.274 39.2064 385.94 39.5625C385.611 39.9148 385.196 40.1894 384.696 40.3864C384.2 40.5795 383.634 40.6761 382.997 40.6761ZM388.626 40.5V31.7727H390.268V33.1591H390.359C390.518 32.6894 390.799 32.3201 391.2 32.0511C391.606 31.7784 392.064 31.642 392.575 31.642C392.681 31.642 392.806 31.6458 392.95 31.6534C393.098 31.661 393.214 31.6705 393.297 31.6818V33.3068C393.229 33.2879 393.107 33.267 392.933 33.2443C392.759 33.2178 392.585 33.2045 392.411 33.2045C392.009 33.2045 391.651 33.2898 391.337 33.4602C391.026 33.6269 390.78 33.8598 390.598 34.1591C390.416 34.4545 390.325 34.7917 390.325 35.1705V40.5H388.626Z" fill="white"/>
<path d="M448.943 32.6477H447.17C447.102 32.2689 446.975 31.9356 446.79 31.6477C446.604 31.3598 446.377 31.1155 446.108 30.9148C445.839 30.714 445.538 30.5625 445.205 30.4602C444.875 30.358 444.525 30.3068 444.153 30.3068C443.483 30.3068 442.883 30.4754 442.352 30.8125C441.826 31.1496 441.409 31.6439 441.102 32.2955C440.799 32.947 440.648 33.7424 440.648 34.6818C440.648 35.6288 440.799 36.428 441.102 37.0795C441.409 37.7311 441.828 38.2235 442.358 38.5568C442.888 38.8902 443.485 39.0568 444.148 39.0568C444.515 39.0568 444.864 39.0076 445.193 38.9091C445.527 38.8068 445.828 38.6572 446.097 38.4602C446.366 38.2633 446.593 38.0227 446.778 37.7386C446.968 37.4508 447.098 37.1212 447.17 36.75L448.943 36.7557C448.848 37.3277 448.665 37.8542 448.392 38.3352C448.123 38.8125 447.777 39.2254 447.352 39.5739C446.932 39.9186 446.451 40.1856 445.909 40.375C445.367 40.5644 444.777 40.6591 444.136 40.6591C443.129 40.6591 442.231 40.4205 441.443 39.9432C440.655 39.4621 440.034 38.7746 439.58 37.8807C439.129 36.9867 438.903 35.9205 438.903 34.6818C438.903 33.4394 439.131 32.3731 439.585 31.483C440.04 30.589 440.661 29.9034 441.449 29.4261C442.237 28.9451 443.133 28.7045 444.136 28.7045C444.754 28.7045 445.33 28.7936 445.864 28.9716C446.402 29.1458 446.884 29.4034 447.312 29.7443C447.741 30.0814 448.095 30.4943 448.375 30.983C448.655 31.4678 448.845 32.0227 448.943 32.6477ZM454.584 40.6761C453.766 40.6761 453.052 40.4886 452.442 40.1136C451.832 39.7386 451.358 39.214 451.021 38.5398C450.684 37.8655 450.516 37.0777 450.516 36.1761C450.516 35.2708 450.684 34.4792 451.021 33.8011C451.358 33.1231 451.832 32.5966 452.442 32.2216C453.052 31.8466 453.766 31.6591 454.584 31.6591C455.402 31.6591 456.116 31.8466 456.726 32.2216C457.336 32.5966 457.809 33.1231 458.146 33.8011C458.483 34.4792 458.652 35.2708 458.652 36.1761C458.652 37.0777 458.483 37.8655 458.146 38.5398C457.809 39.214 457.336 39.7386 456.726 40.1136C456.116 40.4886 455.402 40.6761 454.584 40.6761ZM454.589 39.25C455.12 39.25 455.559 39.1098 455.908 38.8295C456.256 38.5492 456.514 38.1761 456.68 37.7102C456.851 37.2443 456.936 36.7311 456.936 36.1705C456.936 35.6136 456.851 35.1023 456.68 34.6364C456.514 34.1667 456.256 33.7898 455.908 33.5057C455.559 33.2216 455.12 33.0795 454.589 33.0795C454.055 33.0795 453.612 33.2216 453.26 33.5057C452.911 33.7898 452.652 34.1667 452.482 34.6364C452.315 35.1023 452.232 35.6136 452.232 36.1705C452.232 36.7311 452.315 37.2443 452.482 37.7102C452.652 38.1761 452.911 38.5492 453.26 38.8295C453.612 39.1098 454.055 39.25 454.589 39.25ZM462.247 35.3182V40.5H460.548V31.7727H462.179V33.1932H462.287C462.488 32.7311 462.802 32.3598 463.23 32.0795C463.662 31.7992 464.205 31.6591 464.861 31.6591C465.455 31.6591 465.976 31.7841 466.423 32.0341C466.87 32.2803 467.217 32.6477 467.463 33.1364C467.709 33.625 467.832 34.2292 467.832 34.9489V40.5H466.134V35.1534C466.134 34.5208 465.969 34.0265 465.639 33.6705C465.31 33.3106 464.857 33.1307 464.281 33.1307C463.887 33.1307 463.537 33.2159 463.23 33.3864C462.927 33.5568 462.687 33.8068 462.509 34.1364C462.334 34.4621 462.247 34.8561 462.247 35.3182ZM474.185 31.7727V33.1364H469.418V31.7727H474.185ZM470.696 29.6818H472.395V37.9375C472.395 38.267 472.444 38.5152 472.543 38.6818C472.641 38.8447 472.768 38.9564 472.923 39.017C473.082 39.0739 473.255 39.1023 473.44 39.1023C473.577 39.1023 473.696 39.0928 473.798 39.0739C473.901 39.0549 473.98 39.0398 474.037 39.0284L474.344 40.4318C474.245 40.4697 474.105 40.5076 473.923 40.5455C473.741 40.5871 473.514 40.6098 473.241 40.6136C472.795 40.6212 472.378 40.5417 471.991 40.375C471.605 40.2083 471.293 39.9508 471.054 39.6023C470.815 39.2538 470.696 38.8163 470.696 38.2898V29.6818ZM478.604 40.6932C478.051 40.6932 477.551 40.5909 477.104 40.3864C476.657 40.178 476.303 39.8769 476.041 39.483C475.784 39.089 475.655 38.6061 475.655 38.0341C475.655 37.5417 475.75 37.1364 475.939 36.8182C476.128 36.5 476.384 36.2481 476.706 36.0625C477.028 35.8769 477.388 35.7367 477.786 35.642C478.183 35.5473 478.589 35.4754 479.001 35.4261C479.524 35.3655 479.948 35.3163 480.274 35.2784C480.6 35.2367 480.837 35.1705 480.984 35.0795C481.132 34.9886 481.206 34.8409 481.206 34.6364V34.5966C481.206 34.1004 481.066 33.7159 480.786 33.4432C480.509 33.1705 480.096 33.0341 479.547 33.0341C478.975 33.0341 478.524 33.161 478.195 33.4148C477.869 33.6648 477.643 33.9432 477.518 34.25L475.922 33.8864C476.111 33.3561 476.388 32.928 476.751 32.6023C477.119 32.2727 477.541 32.0341 478.018 31.8864C478.496 31.7348 478.998 31.6591 479.524 31.6591C479.873 31.6591 480.242 31.7008 480.632 31.7841C481.026 31.8636 481.393 32.0114 481.734 32.2273C482.079 32.4432 482.361 32.7519 482.581 33.1534C482.801 33.5511 482.911 34.0682 482.911 34.7045V40.5H481.251V39.3068H481.183C481.073 39.5265 480.909 39.7424 480.689 39.9545C480.469 40.1667 480.187 40.3428 479.842 40.483C479.498 40.6231 479.085 40.6932 478.604 40.6932ZM478.973 39.3295C479.443 39.3295 479.844 39.2367 480.178 39.0511C480.515 38.8655 480.77 38.6231 480.945 38.3239C481.123 38.0208 481.212 37.697 481.212 37.3523V36.2273C481.151 36.2879 481.034 36.3447 480.859 36.3977C480.689 36.447 480.494 36.4905 480.274 36.5284C480.054 36.5625 479.84 36.5947 479.632 36.625C479.424 36.6515 479.25 36.6742 479.109 36.6932C478.78 36.7348 478.479 36.8049 478.206 36.9034C477.937 37.0019 477.721 37.1439 477.558 37.3295C477.399 37.5114 477.32 37.7538 477.32 38.0568C477.32 38.4773 477.475 38.7955 477.786 39.0114C478.096 39.2235 478.492 39.3295 478.973 39.3295ZM488.849 40.6761C488.005 40.6761 487.277 40.4848 486.668 40.1023C486.062 39.7159 485.596 39.1837 485.27 38.5057C484.944 37.8277 484.781 37.0511 484.781 36.1761C484.781 35.2898 484.948 34.5076 485.281 33.8295C485.615 33.1477 486.084 32.6155 486.69 32.233C487.296 31.8504 488.01 31.6591 488.832 31.6591C489.495 31.6591 490.086 31.7822 490.605 32.0284C491.124 32.2708 491.543 32.6117 491.861 33.0511C492.183 33.4905 492.374 34.0038 492.435 34.5909H490.781C490.69 34.1818 490.482 33.8295 490.156 33.5341C489.834 33.2386 489.402 33.0909 488.861 33.0909C488.387 33.0909 487.973 33.2159 487.616 33.4659C487.264 33.7121 486.99 34.0644 486.793 34.5227C486.596 34.9773 486.497 35.5152 486.497 36.1364C486.497 36.7727 486.594 37.322 486.787 37.7841C486.98 38.2462 487.253 38.6042 487.605 38.858C487.961 39.1117 488.38 39.2386 488.861 39.2386C489.183 39.2386 489.474 39.1799 489.736 39.0625C490.001 38.9413 490.223 38.7689 490.401 38.5455C490.582 38.322 490.709 38.053 490.781 37.7386H492.435C492.374 38.303 492.19 38.8068 491.884 39.25C491.577 39.6932 491.166 40.0417 490.651 40.2955C490.139 40.5492 489.539 40.6761 488.849 40.6761ZM498.325 31.7727V33.1364H493.558V31.7727H498.325ZM494.837 29.6818H496.536V37.9375C496.536 38.267 496.585 38.5152 496.683 38.6818C496.782 38.8447 496.909 38.9564 497.064 39.017C497.223 39.0739 497.395 39.1023 497.581 39.1023C497.717 39.1023 497.837 39.0928 497.939 39.0739C498.041 39.0549 498.121 39.0398 498.178 39.0284L498.484 40.4318C498.386 40.4697 498.246 40.5076 498.064 40.5455C497.882 40.5871 497.655 40.6098 497.382 40.6136C496.935 40.6212 496.518 40.5417 496.132 40.375C495.746 40.2083 495.433 39.9508 495.195 39.6023C494.956 39.2538 494.837 38.8163 494.837 38.2898V29.6818Z" fill="white"/>
</svg>
