<svg width="76" height="59" viewBox="0 0 76 59" fill="none" xmlns="http://www.w3.org/2000/svg">
<path d="M18.5146 9.06688C17.1897 9.06693 15.8774 9.32742 14.6533 9.83446C13.4292 10.3415 12.3168 11.085 11.3799 12.022C10.4429 12.9589 9.69947 14.0712 9.19238 15.2954C8.68535 16.5195 8.42486 17.8318 8.4248 19.1567L8.43652 19.6528C8.49341 20.8083 8.74872 21.9469 9.19238 23.0181C9.69944 24.2422 10.443 25.3545 11.3799 26.2915C12.3168 27.2284 13.4292 27.9719 14.6533 28.479C15.8774 28.986 17.1897 29.2465 18.5146 29.2466V37.6714C16.0834 37.6713 13.6759 37.1926 11.4297 36.2622C9.18335 35.3317 7.14213 33.9678 5.42285 32.2485C3.70365 30.5293 2.33962 28.488 1.40918 26.2417C0.536914 24.1357 0.0618291 21.888 0.00585938 19.6118L0 19.1567C5.5096e-05 16.7255 0.47879 14.318 1.40918 12.0718C2.33965 9.82541 3.70357 7.78421 5.42285 6.06493C7.14213 4.34564 9.18334 2.98172 11.4297 2.05125C13.6759 1.12086 16.0834 0.64213 18.5146 0.642075V9.06688ZM50.4961 37.6714H18.5156V29.2554H50.4961V37.6714ZM73.5459 37.5903L62.0439 37.6606L46.8965 22.4448L52.6582 16.6782L73.5459 37.5903ZM50.4961 0.642075C52.9267 0.642371 55.3335 1.12112 57.5791 2.05125C59.8254 2.98172 61.8667 4.34565 63.5859 6.06493C65.3052 7.78421 66.6691 9.82541 67.5996 12.0718C68.53 14.318 69.0087 16.7255 69.0088 19.1567H60.584C60.5839 17.8318 60.3234 16.5195 59.8164 15.2954C59.3093 14.0712 58.5658 12.9589 57.6289 12.022C56.692 11.085 55.5797 10.3415 54.3555 9.83446C53.1313 9.32741 51.8191 9.06692 50.4941 9.06688V9.05809H18.5156V0.642075H50.4961Z" fill="white"/>
<path d="M6.71927 58.5384C4.98095 58.5384 3.59029 58.1238 2.5473 57.2948C1.50431 56.4658 0.895902 55.2824 0.72207 53.7446H2.78799C2.90834 54.7475 3.30949 55.5097 3.99144 56.0312C4.6734 56.5527 5.59605 56.8134 6.75938 56.8134C7.73551 56.8134 8.47096 56.6329 8.96571 56.2719C9.47383 55.9108 9.72789 55.396 9.72789 54.7274C9.72789 54.1257 9.56075 53.651 9.22645 53.3034C8.89216 52.9423 8.36398 52.6481 7.64191 52.4208L5.13472 51.6185C3.85104 51.204 2.90834 50.6825 2.30661 50.054C1.70489 49.4256 1.40403 48.63 1.40403 47.6672C1.40403 46.8515 1.6046 46.1495 2.00575 45.5612C2.42027 44.9728 2.99526 44.5182 3.7307 44.1972C4.47951 43.863 5.34867 43.6958 6.33817 43.6958C7.86254 43.6958 9.07937 44.0836 9.98864 44.8591C10.9113 45.6213 11.4395 46.6844 11.5732 48.0483H9.50726C9.3468 47.139 8.99914 46.4771 8.46427 46.0626C7.9294 45.6347 7.19396 45.4208 6.25794 45.4208C5.37541 45.4208 4.68677 45.5946 4.19202 45.9422C3.69727 46.2899 3.44989 46.778 3.44989 47.4064C3.44989 47.9146 3.61035 48.3425 3.93127 48.6901C4.26556 49.0244 4.8138 49.3119 5.57599 49.5526L8.20352 50.395C9.42034 50.7828 10.3162 51.311 10.8912 51.9796C11.4796 52.6481 11.7738 53.4906 11.7738 54.5068C11.7738 55.7905 11.3325 56.7867 10.45 57.4954C9.56743 58.1907 8.32387 58.5384 6.71927 58.5384ZM20.6602 58.5584C19.1759 58.5584 17.8856 58.2442 16.7891 57.6157C15.6926 56.9739 14.8435 56.0914 14.2418 54.9681C13.6534 53.8315 13.3592 52.5345 13.3592 51.077C13.3592 49.6328 13.6601 48.3558 14.2618 47.246C14.8636 46.1361 15.6926 45.2737 16.749 44.6586C17.8187 44.0301 19.0355 43.7159 20.3994 43.7159C21.7901 43.7159 23.0136 44.0301 24.07 44.6586C25.1263 45.2737 25.9554 46.1361 26.5571 47.246C27.1722 48.3558 27.4797 49.6395 27.4797 51.097C27.4797 52.1266 27.3059 53.0827 26.9582 53.9653C26.6239 54.8478 26.1091 55.5966 25.4138 56.2117C24.7319 56.8268 23.8694 57.2547 22.8264 57.4954L20.6602 58.5584ZM20.3994 56.8535C21.3889 56.8535 22.2447 56.6062 22.9668 56.1114C23.7022 55.6167 24.2772 54.9347 24.6917 54.0655C25.1063 53.1964 25.3135 52.1935 25.3135 51.0569C25.3135 49.9604 25.1063 48.9977 24.6917 48.1686C24.2772 47.3262 23.7022 46.6777 22.9668 46.2231C22.2313 45.755 21.3756 45.521 20.3994 45.521C19.4233 45.521 18.5675 45.755 17.8321 46.2231C17.11 46.6777 16.5417 47.3195 16.1272 48.1486C15.726 48.9776 15.5255 49.9471 15.5255 51.0569C15.5255 52.2069 15.7327 53.2164 16.1472 54.0856C16.5618 54.9414 17.1301 55.6167 17.8521 56.1114C18.5876 56.6062 19.4367 56.8535 20.3994 56.8535ZM20.6602 58.5584L20.4195 57.1143L28.0815 56.6128V58.3578C27.2524 58.3578 26.537 58.3645 25.9353 58.3779C25.3469 58.4046 24.792 58.4314 24.2705 58.4581C23.7624 58.4849 23.2275 58.5049 22.6659 58.5183C22.1043 58.5451 21.4357 58.5584 20.6602 58.5584ZM29.1024 58.3578L34.5379 43.9164H36.3832L31.1883 58.3578H29.1024ZM40.2744 58.3578L35.0795 43.9164H37.0251L42.4807 58.3578H40.2744ZM31.8502 52.6013H39.5924V54.3664H31.8502V52.6013ZM44.2431 58.3578V43.9164H49.9394C50.9824 43.9164 51.8716 44.0903 52.6071 44.4379C53.3425 44.7722 53.9108 45.2469 54.312 45.862C54.7131 46.4637 54.9137 47.1791 54.9137 48.0082C54.9137 48.8372 54.7131 49.5593 54.312 50.1744C53.9108 50.7895 53.3425 51.2709 52.6071 51.6185C51.8716 51.9662 50.9824 52.14 49.9394 52.14H45.8477V50.4151H49.8793C50.842 50.4151 51.5708 50.2078 52.0655 49.7933C52.5737 49.3654 52.8277 48.777 52.8277 48.0282C52.8277 47.2794 52.5803 46.6977 52.0856 46.2832C51.5908 45.8687 50.8554 45.6614 49.8793 45.6614H46.3692V58.3578H44.2431ZM52.587 58.3578L45.5468 51.077H48.1343L55.6358 58.3578H52.587ZM57.5043 58.3578V43.9164H59.6304V58.3578H57.5043ZM67.832 58.5384C66.0937 58.5384 64.703 58.1238 63.66 57.2948C62.617 56.4658 62.0086 55.2824 61.8348 53.7446H63.9007C64.0211 54.7475 64.4222 55.5097 65.1042 56.0312C65.7861 56.5527 66.7088 56.8134 67.8721 56.8134C68.8482 56.8134 69.5837 56.6329 70.0784 56.2719C70.5866 55.9108 70.8406 55.396 70.8406 54.7274C70.8406 54.1257 70.6735 53.651 70.3392 53.3034C70.0049 52.9423 69.4767 52.6481 68.7546 52.4208L66.2475 51.6185C64.9638 51.204 64.0211 50.6825 63.4193 50.054C62.8176 49.4256 62.5168 48.63 62.5168 47.6672C62.5168 46.8515 62.7173 46.1495 63.1185 45.5612C63.533 44.9728 64.108 44.5182 64.8434 44.1972C65.5922 43.863 66.4614 43.6958 67.4509 43.6958C68.9753 43.6958 70.1921 44.0836 71.1014 44.8591C72.024 45.6213 72.5522 46.6844 72.6859 48.0483H70.62C70.4595 47.139 70.1119 46.4771 69.577 46.0626C69.0421 45.6347 68.3067 45.4208 67.3707 45.4208C66.4881 45.4208 65.7995 45.5946 65.3047 45.9422C64.81 46.2899 64.5626 46.778 64.5626 47.4064C64.5626 47.9146 64.7231 48.3425 65.044 48.6901C65.3783 49.0244 65.9265 49.3119 66.6887 49.5526L69.3163 50.395C70.5331 50.7828 71.429 51.311 72.004 51.9796C72.5923 52.6481 72.8865 53.4906 72.8865 54.5068C72.8865 55.7905 72.4452 56.7867 71.5627 57.4954C70.6802 58.1907 69.4366 58.5384 67.832 58.5384Z" fill="url(#paint0_linear_58_6130)"/>
<defs>
<linearGradient id="paint0_linear_58_6130" x1="37.6078" y1="44.3578" x2="37.6078" y2="58.3578" gradientUnits="userSpaceOnUse">
<stop stop-color="#E7E7E7"/>
<stop offset="1" stop-color="#646464"/>
</linearGradient>
</defs>
</svg>
